<svg width="23" height="23" viewBox="0 0 23 23" fill="none" xmlns="http://www.w3.org/2000/svg">
<path d="M0.943359 0.275525C1.05566 0.208133 1.23535 0.12277 1.34766 0.0823354C1.53184 0.010451 2.00801 0.00595819 7.20996 0.00146541C12.8207 -0.00302737 12.8746 -0.00302736 13.1846 0.091321C13.3598 0.145234 13.6383 0.257554 13.8135 0.347409C14.0291 0.459729 14.2402 0.621469 14.4873 0.868572C14.7523 1.13814 14.8916 1.32234 15.0129 1.56945C15.1072 1.75365 15.2105 2.04568 15.251 2.2209C15.3139 2.48597 15.3229 2.80945 15.2959 6.08918L15.1836 6.25541C15.1207 6.34976 14.9904 6.48005 14.8961 6.54744C14.7568 6.64179 14.658 6.67324 14.4244 6.68223C14.1773 6.69571 14.092 6.67773 13.9258 6.59237C13.8135 6.52947 13.6607 6.39469 13.4541 6.09817L13.4316 4.36395C13.4092 2.67018 13.4047 2.62076 13.3059 2.43206C13.252 2.32872 13.1217 2.18046 13.0139 2.10858C12.9105 2.0322 12.7623 1.96032 12.6904 1.94684C12.6186 1.93785 11.5674 1.93336 8.15781 1.95133L8.49473 2.11756C8.71035 2.22539 8.90352 2.36017 9.03828 2.50844C9.15957 2.63423 9.32129 2.87235 9.5459 3.34409L9.56836 18.1927L12.7937 18.1703L12.9914 18.0355C13.0947 17.9591 13.234 17.8063 13.4092 17.4963L13.4316 15.2949C13.4496 13.3585 13.4631 13.0755 13.5305 12.9586C13.5709 12.8868 13.6518 12.7789 13.7102 12.7295C13.7641 12.6756 13.8854 12.5947 13.9707 12.5498C14.065 12.5004 14.2223 12.4689 14.375 12.4689C14.5367 12.4689 14.685 12.5004 14.8018 12.5633C14.9006 12.6172 15.0264 12.707 15.0803 12.7655C15.1342 12.8194 15.2105 12.9452 15.2465 13.035C15.3094 13.1833 15.3184 13.5157 15.3184 15.4162C15.3184 17.2448 15.3049 17.6805 15.2465 17.9232C15.2105 18.0849 15.1072 18.3679 15.0129 18.5521C14.8916 18.7993 14.7523 18.9879 14.4873 19.253C14.2043 19.5406 14.0471 19.6574 13.7461 19.8056C13.535 19.909 13.225 20.0213 13.0498 20.0572C12.8072 20.1066 12.367 20.1246 9.56836 20.1246V20.7761C9.56836 21.3152 9.55039 21.4725 9.47852 21.6881C9.4291 21.8274 9.3168 22.052 9.23145 22.1778C9.14609 22.3081 8.96641 22.4968 8.84062 22.5956C8.71035 22.69 8.47227 22.8248 8.31055 22.8877C8.09043 22.973 7.9377 23 7.68164 23C7.3627 23 7.1875 22.9461 4.26758 21.9756C2.57402 21.4096 1.10059 20.9019 0.988281 20.8435C0.875977 20.7851 0.691797 20.6458 0.579492 20.5335C0.467187 20.4211 0.323437 20.2369 0.256055 20.1246C0.193164 20.0123 0.107813 19.8011 0.0673828 19.6529C0.00898438 19.4148 0 18.3994 0 10.5325C0 3.29467 0.0134766 1.64133 0.0628906 1.45713C0.0943359 1.33133 0.166211 1.14263 0.224609 1.03031C0.283008 0.917992 0.422266 0.729296 0.53457 0.607991C0.646875 0.491178 0.831055 0.338424 0.943359 0.275525Z" fill="white"/>
<path d="M17.4836 5.13222C17.5645 5.04236 17.7127 4.93454 17.8115 4.88961C17.9104 4.84468 18.09 4.80425 18.2158 4.80425C18.3506 4.80425 18.5123 4.84019 18.6201 4.8941C18.7324 4.94801 19.5275 5.71179 20.8078 6.99223C21.9084 8.10194 22.8562 9.08137 22.9057 9.17123C22.9686 9.28804 23 9.42282 23 9.58906C23 9.79572 22.973 9.87659 22.8473 10.0698C22.7619 10.2001 21.8186 11.1795 20.7494 12.2488C19.285 13.7044 18.7504 14.2121 18.5977 14.2795C18.4854 14.3289 18.3236 14.3739 18.2383 14.3739C18.1529 14.3739 18.0002 14.3469 17.9014 14.32C17.8025 14.2885 17.6408 14.1807 17.542 14.0818C17.4432 13.983 17.3354 13.8213 17.3039 13.7224C17.268 13.5966 17.25 13.0889 17.25 10.555H15.3184C13.9752 10.555 13.3238 10.537 13.1711 10.5011C13.0229 10.4651 12.9016 10.3888 12.7533 10.245C12.6006 10.0922 12.5332 9.97993 12.4928 9.81369C12.4523 9.65195 12.4523 9.53514 12.4838 9.38688C12.5107 9.27456 12.5826 9.11282 12.641 9.02296C12.7084 8.92412 12.8477 8.8118 13.2295 8.62311H17.25V7.12701C17.25 6.28237 17.268 5.56353 17.2949 5.46468C17.3219 5.37483 17.4072 5.22657 17.4836 5.13222Z" fill="white"/>
</svg>
