<svg width="110" height="105" viewBox="0 0 110 105" fill="none" xmlns="http://www.w3.org/2000/svg">
<g filter="url(#filter0_dddddd_581_49)">
<rect x="29" y="29" width="52" height="47" rx="7" fill="#B7ED1D"/>
</g>
<path d="M62.0673 36C59.4501 36 56.9734 36.9127 55 38.5872C53.0266 36.9127 50.55 36 47.9327 36C43.4456 36 39.4637 38.6908 37.7882 42.8559C37.593 43.3412 37.828 43.893 38.3137 44.0883C38.7958 44.2839 39.3499 44.0499 39.5461 43.5628C40.931 40.1198 44.2228 37.8947 47.9327 37.8947C50.3492 37.8947 52.6214 38.8356 54.3302 40.5444C54.7003 40.9145 55.2998 40.9145 55.6698 40.5444C57.3786 38.8356 59.6508 37.8947 62.0673 37.8947C67.0512 37.8947 71.1053 41.9493 71.1053 46.9327C71.1053 57.6303 57.5137 64.9479 55 66.2094C52.7694 65.0913 41.8146 59.2101 39.3814 50.4312C39.2408 49.9265 38.7153 49.6337 38.2157 49.7711C37.7115 49.9108 37.4154 50.433 37.5551 50.9372C40.4906 61.5276 54.0295 67.8594 54.604 68.124C54.7299 68.1819 54.8649 68.2105 55 68.2105C55.1351 68.2105 55.2702 68.1819 55.396 68.124C56.1148 67.7933 73 59.8771 73 46.9327C73 40.9043 68.0957 36 62.0673 36Z" fill="black"/>
<path d="M54.9999 45.4736C51.8641 45.4736 49.3157 48.0221 49.3157 51.1578C49.3157 52.9768 50.2157 54.6915 51.6841 55.7526V57.7894C51.6841 59.0968 52.7451 60.1578 54.0525 60.1578H55.9473C57.2546 60.1578 58.3157 59.0968 58.3157 57.7894V55.7526C59.7841 54.6915 60.6841 52.9768 60.6841 51.1578C60.6841 48.0221 58.1357 45.4736 54.9999 45.4736ZM56.4209 57.7894C56.4209 58.0547 56.2125 58.2631 55.9473 58.2631H54.0525C53.7872 58.2631 53.5788 58.0547 53.5788 57.7894V57.3157H56.4209V57.7894ZM56.8946 54.4168C56.6009 54.5873 56.4209 54.9 56.4209 55.241V55.421H53.5788V55.241C53.5788 54.9 53.3988 54.5873 53.1051 54.4168C51.9209 53.7252 51.2104 52.5126 51.2104 51.1578C51.2104 49.0641 52.9062 47.3684 54.9999 47.3684C57.0936 47.3684 58.7894 49.0641 58.7894 51.1578C58.7894 52.5126 58.0788 53.7252 56.8946 54.4168Z" fill="black"/>
<path d="M55.0001 52.1053C55.5233 52.1053 55.9475 51.6812 55.9475 51.1579C55.9475 50.6347 55.5233 50.2106 55.0001 50.2106C54.4769 50.2106 54.0527 50.6347 54.0527 51.1579C54.0527 51.6812 54.4769 52.1053 55.0001 52.1053Z" fill="black"/>
<path d="M61.876 42.4701L59.9701 44.5785C59.6195 44.9666 59.65 45.5657 60.0377 45.9164C60.4222 46.2635 61.0287 46.2344 61.3764 45.8488L63.2822 43.7403C63.6329 43.3522 63.6023 42.7532 63.2147 42.4025C62.827 42.0528 62.2266 42.0806 61.876 42.4701Z" fill="black"/>
<path d="M61.7343 48.1497C61.9661 48.6133 62.5435 48.8044 63.0055 48.5735L64.7004 47.726C65.1685 47.4919 65.3582 46.923 65.1241 46.4548C64.8891 45.9867 64.322 45.7975 63.8529 46.0311L62.158 46.8786C61.6899 47.1126 61.5003 47.6815 61.7343 48.1497Z" fill="black"/>
<path d="M48.1242 42.4701C47.7708 42.0806 47.1731 42.0528 46.7855 42.4025C46.3978 42.7532 46.3673 43.3522 46.7179 43.7403C46.7179 43.7403 48.62 45.8446 48.6238 45.8488C48.9519 46.2118 49.5771 46.2643 49.9625 45.9163C50.3501 45.5657 50.3807 44.9666 50.03 44.5785L48.1242 42.4701Z" fill="black"/>
<path d="M44.8759 46.4548C44.6418 46.923 44.8315 47.4919 45.2996 47.726C45.2996 47.726 46.9903 48.5713 46.9945 48.5735C47.4298 48.7911 48.0344 48.611 48.2657 48.1497C48.4998 47.6816 48.3101 47.1126 47.842 46.8786L46.1471 46.0311C45.6789 45.7975 45.11 45.9867 44.8759 46.4548Z" fill="black"/>
<path d="M37.9474 47.884C38.4706 47.884 38.8947 47.4598 38.8947 46.9366C38.8947 46.4134 38.4706 45.9893 37.9474 45.9893C37.4242 45.9893 37 46.4134 37 46.9366C37 47.4598 37.4242 47.884 37.9474 47.884Z" fill="black"/>
<defs>
<filter id="filter0_dddddd_581_49" x="0.1712" y="0.1712" width="109.658" height="104.658" filterUnits="userSpaceOnUse" color-interpolation-filters="sRGB">
<feFlood flood-opacity="0" result="BackgroundImageFix"/>
<feColorMatrix in="SourceAlpha" type="matrix" values="0 0 0 0 0 0 0 0 0 0 0 0 0 0 0 0 0 0 127 0" result="hardAlpha"/>
<feOffset/>
<feGaussianBlur stdDeviation="0.3432"/>
<feColorMatrix type="matrix" values="0 0 0 0 0.243137 0 0 0 0 0.301961 0 0 0 0 0.0784314 0 0 0 1 0"/>
<feBlend mode="normal" in2="BackgroundImageFix" result="effect1_dropShadow_581_49"/>
<feColorMatrix in="SourceAlpha" type="matrix" values="0 0 0 0 0 0 0 0 0 0 0 0 0 0 0 0 0 0 127 0" result="hardAlpha"/>
<feOffset/>
<feGaussianBlur stdDeviation="0.6864"/>
<feColorMatrix type="matrix" values="0 0 0 0 0.243137 0 0 0 0 0.301961 0 0 0 0 0.0784314 0 0 0 1 0"/>
<feBlend mode="normal" in2="effect1_dropShadow_581_49" result="effect2_dropShadow_581_49"/>
<feColorMatrix in="SourceAlpha" type="matrix" values="0 0 0 0 0 0 0 0 0 0 0 0 0 0 0 0 0 0 127 0" result="hardAlpha"/>
<feOffset/>
<feGaussianBlur stdDeviation="2.4024"/>
<feColorMatrix type="matrix" values="0 0 0 0 0.243137 0 0 0 0 0.301961 0 0 0 0 0.0784314 0 0 0 1 0"/>
<feBlend mode="normal" in2="effect2_dropShadow_581_49" result="effect3_dropShadow_581_49"/>
<feColorMatrix in="SourceAlpha" type="matrix" values="0 0 0 0 0 0 0 0 0 0 0 0 0 0 0 0 0 0 127 0" result="hardAlpha"/>
<feOffset/>
<feGaussianBlur stdDeviation="4.8048"/>
<feColorMatrix type="matrix" values="0 0 0 0 0.243137 0 0 0 0 0.301961 0 0 0 0 0.0784314 0 0 0 1 0"/>
<feBlend mode="normal" in2="effect3_dropShadow_581_49" result="effect4_dropShadow_581_49"/>
<feColorMatrix in="SourceAlpha" type="matrix" values="0 0 0 0 0 0 0 0 0 0 0 0 0 0 0 0 0 0 127 0" result="hardAlpha"/>
<feOffset/>
<feGaussianBlur stdDeviation="8.2368"/>
<feColorMatrix type="matrix" values="0 0 0 0 0.243137 0 0 0 0 0.301961 0 0 0 0 0.0784314 0 0 0 1 0"/>
<feBlend mode="normal" in2="effect4_dropShadow_581_49" result="effect5_dropShadow_581_49"/>
<feColorMatrix in="SourceAlpha" type="matrix" values="0 0 0 0 0 0 0 0 0 0 0 0 0 0 0 0 0 0 127 0" result="hardAlpha"/>
<feOffset/>
<feGaussianBlur stdDeviation="14.4144"/>
<feColorMatrix type="matrix" values="0 0 0 0 0.243137 0 0 0 0 0.301961 0 0 0 0 0.0784314 0 0 0 1 0"/>
<feBlend mode="normal" in2="effect5_dropShadow_581_49" result="effect6_dropShadow_581_49"/>
<feBlend mode="normal" in="SourceGraphic" in2="effect6_dropShadow_581_49" result="shape"/>
</filter>
</defs>
</svg>
