<svg width="110" height="105" viewBox="0 0 110 105" fill="none" xmlns="http://www.w3.org/2000/svg">
<g filter="url(#filter0_dddddd_581_31)">
<rect x="29" y="29" width="52" height="47" rx="7" fill="#B7ED1D"/>
</g>
<path d="M65.043 44.3915C64.881 42.8224 63.8687 41.486 62.4412 40.8989C62.4614 40.6964 62.4817 40.4939 62.4817 40.2915C62.4817 37.9529 60.5785 36.0496 58.2298 36.0496C57.4199 36.0496 56.6606 36.2926 56.0127 36.6976V35.0373C56.0127 34.4805 55.5571 34.0249 55.0003 34.0249C46.628 34.0249 39.8148 40.8381 39.8148 49.2104C39.8148 54.3937 42.5178 59.2531 46.9014 62.0269V62.3712C46.9014 63.6872 47.7518 64.8008 48.9261 65.2261V67.433C48.9261 69.1034 50.2928 70.4701 51.9632 70.4701H58.0374C59.7078 70.4701 61.0745 69.1034 61.0745 67.433V64.3959C61.0745 63.8391 60.6189 63.3835 60.0621 63.3835H56.0127V60.7109C56.6606 61.1158 57.4199 61.3588 58.2298 61.3588C60.5785 61.3588 62.4817 59.4556 62.4817 57.117C62.4817 56.9145 62.4614 56.712 62.4412 56.5095C63.8686 55.9224 64.881 54.5861 65.043 53.0169C66.6324 52.1868 67.6549 50.5265 67.6549 48.7042C67.6549 46.882 66.6324 45.2217 65.043 44.3915ZM59.0498 65.4083V67.433C59.0498 67.9898 58.5942 68.4454 58.0374 68.4454H51.9632C51.4064 68.4454 50.9509 67.9898 50.9509 67.433V65.4083H59.0498ZM51.4975 53.2599H53.988V63.3835H52.8541L51.4975 53.2599ZM63.7066 51.3971C63.2713 51.549 62.998 51.964 63.0284 52.4196C63.1094 53.6142 62.259 54.6569 61.0745 54.7886C60.7505 54.829 60.4671 55.0112 60.3051 55.2947C60.1432 55.5782 60.1229 55.9123 60.2545 56.2058C60.3861 56.4995 60.457 56.8032 60.457 57.117C60.457 58.3419 59.4548 59.3341 58.2298 59.3341C57.0048 59.3341 56.0127 58.3419 56.0127 57.117V50.2228C56.0127 49.666 55.5571 49.2104 55.0003 49.2104C54.4435 49.2104 53.988 49.666 53.988 50.2228V51.2351H51.2343L50.9407 49.0788C50.8698 48.522 50.3637 48.1272 49.8069 48.2082C49.2501 48.279 48.8654 48.7852 48.9362 49.342L49.1893 51.2351H47.9138C47.357 51.2351 46.9014 51.6907 46.9014 52.2475C46.9014 52.8043 47.357 53.2599 47.9138 53.2599H49.4526L50.8091 63.3835H49.9385C49.3817 63.3835 48.9261 62.928 48.9261 62.3712V61.46C48.9261 61.0956 48.7338 60.7615 48.4199 60.5793C44.3603 58.2306 41.8396 53.8774 41.8396 49.2104C41.8396 42.2959 47.2051 36.6064 53.988 36.0901V42.1238C53.988 42.6806 54.4435 43.1362 55.0003 43.1362C55.5571 43.1362 56.0127 42.6806 56.0127 42.1238V40.2915C56.0127 39.0665 57.0048 38.0744 58.2298 38.0744C59.4548 38.0744 60.457 39.0665 60.457 40.2915C60.457 40.6053 60.3861 40.909 60.2545 41.2025C60.1229 41.4962 60.1432 41.8302 60.3051 42.1137C60.4671 42.3971 60.7505 42.5794 61.0745 42.6199C62.259 42.7515 63.1094 43.7942 63.0284 44.9787C62.998 45.4342 63.2713 45.8595 63.7066 46.0113C64.8608 46.4163 65.6302 47.4995 65.6302 48.7042C65.6302 49.9089 64.8608 50.9922 63.7066 51.3971Z" fill="#070A0F"/>
<path d="M55.0003 47.1855C55.5594 47.1855 56.0126 46.7322 56.0126 46.1731C56.0126 45.614 55.5594 45.1608 55.0003 45.1608C54.4412 45.1608 53.9879 45.614 53.9879 46.1731C53.9879 46.7322 54.4412 47.1855 55.0003 47.1855Z" fill="#070A0F"/>
<path d="M71.8929 36.5919C71.6417 36.0911 71.0357 35.8885 70.5345 36.1391L68.7233 37.0447C68.223 37.2948 68.0204 37.9027 68.2705 38.403C68.5078 38.8777 69.1269 39.1068 69.6289 38.8559L71.4401 37.9503C71.9403 37.7001 72.143 37.0921 71.8929 36.5919Z" fill="#070A0F"/>
<path d="M42.1122 35.9443C42.4842 36.3548 43.1314 36.3884 43.5427 36.0164C43.9569 35.6417 43.9895 35.0016 43.6148 34.5869L41.5782 32.3338C41.2016 31.918 40.5619 31.8869 40.1477 32.2616C39.7335 32.6363 39.7008 33.2764 40.0755 33.6912L42.1122 35.9443Z" fill="#070A0F"/>
<path d="M41.7295 38.403C41.9797 37.9028 41.777 37.2948 41.2767 37.0447L39.4655 36.1391C38.9643 35.8885 38.3583 36.0911 38.1072 36.5919C37.857 37.0921 38.0597 37.7001 38.56 37.9503L40.3711 38.8559C40.8731 39.1068 41.4923 38.8777 41.7295 38.403Z" fill="#070A0F"/>
<path d="M69.8524 32.2616C69.4381 31.8869 68.7985 31.918 68.4218 32.3338L66.3852 34.5869C66.0105 35.0016 66.0431 35.6417 66.4574 36.0164C66.8687 36.3884 67.5158 36.3548 67.8879 35.9443L69.9245 33.6912C70.2992 33.2764 70.2666 32.6363 69.8524 32.2616Z" fill="#070A0F"/>
<defs>
<filter id="filter0_dddddd_581_31" x="0.1712" y="0.1712" width="109.658" height="104.658" filterUnits="userSpaceOnUse" color-interpolation-filters="sRGB">
<feFlood flood-opacity="0" result="BackgroundImageFix"/>
<feColorMatrix in="SourceAlpha" type="matrix" values="0 0 0 0 0 0 0 0 0 0 0 0 0 0 0 0 0 0 127 0" result="hardAlpha"/>
<feOffset/>
<feGaussianBlur stdDeviation="0.3432"/>
<feColorMatrix type="matrix" values="0 0 0 0 0.243137 0 0 0 0 0.301961 0 0 0 0 0.0784314 0 0 0 1 0"/>
<feBlend mode="normal" in2="BackgroundImageFix" result="effect1_dropShadow_581_31"/>
<feColorMatrix in="SourceAlpha" type="matrix" values="0 0 0 0 0 0 0 0 0 0 0 0 0 0 0 0 0 0 127 0" result="hardAlpha"/>
<feOffset/>
<feGaussianBlur stdDeviation="0.6864"/>
<feColorMatrix type="matrix" values="0 0 0 0 0.243137 0 0 0 0 0.301961 0 0 0 0 0.0784314 0 0 0 1 0"/>
<feBlend mode="normal" in2="effect1_dropShadow_581_31" result="effect2_dropShadow_581_31"/>
<feColorMatrix in="SourceAlpha" type="matrix" values="0 0 0 0 0 0 0 0 0 0 0 0 0 0 0 0 0 0 127 0" result="hardAlpha"/>
<feOffset/>
<feGaussianBlur stdDeviation="2.4024"/>
<feColorMatrix type="matrix" values="0 0 0 0 0.243137 0 0 0 0 0.301961 0 0 0 0 0.0784314 0 0 0 1 0"/>
<feBlend mode="normal" in2="effect2_dropShadow_581_31" result="effect3_dropShadow_581_31"/>
<feColorMatrix in="SourceAlpha" type="matrix" values="0 0 0 0 0 0 0 0 0 0 0 0 0 0 0 0 0 0 127 0" result="hardAlpha"/>
<feOffset/>
<feGaussianBlur stdDeviation="4.8048"/>
<feColorMatrix type="matrix" values="0 0 0 0 0.243137 0 0 0 0 0.301961 0 0 0 0 0.0784314 0 0 0 1 0"/>
<feBlend mode="normal" in2="effect3_dropShadow_581_31" result="effect4_dropShadow_581_31"/>
<feColorMatrix in="SourceAlpha" type="matrix" values="0 0 0 0 0 0 0 0 0 0 0 0 0 0 0 0 0 0 127 0" result="hardAlpha"/>
<feOffset/>
<feGaussianBlur stdDeviation="8.2368"/>
<feColorMatrix type="matrix" values="0 0 0 0 0.243137 0 0 0 0 0.301961 0 0 0 0 0.0784314 0 0 0 1 0"/>
<feBlend mode="normal" in2="effect4_dropShadow_581_31" result="effect5_dropShadow_581_31"/>
<feColorMatrix in="SourceAlpha" type="matrix" values="0 0 0 0 0 0 0 0 0 0 0 0 0 0 0 0 0 0 127 0" result="hardAlpha"/>
<feOffset/>
<feGaussianBlur stdDeviation="14.4144"/>
<feColorMatrix type="matrix" values="0 0 0 0 0.243137 0 0 0 0 0.301961 0 0 0 0 0.0784314 0 0 0 1 0"/>
<feBlend mode="normal" in2="effect5_dropShadow_581_31" result="effect6_dropShadow_581_31"/>
<feBlend mode="normal" in="SourceGraphic" in2="effect6_dropShadow_581_31" result="shape"/>
</filter>
</defs>
</svg>
