<svg width="110" height="105" viewBox="0 0 110 105" fill="none" xmlns="http://www.w3.org/2000/svg">
<g filter="url(#filter0_dddddd_581_40)">
<rect x="29" y="29" width="52" height="47" rx="7" fill="#B7ED1D"/>
</g>
<path d="M56.5207 42.2107L54.2698 44.4616L53.4788 43.6706C53.1087 43.3005 52.5092 43.3005 52.1391 43.6706C51.7691 44.0406 51.7691 44.6401 52.1391 45.0102C52.1391 45.0102 53.5976 46.4687 53.6 46.471C53.9445 46.8155 54.5732 46.8374 54.9396 46.471C54.9416 46.4691 57.8603 43.5503 57.8603 43.5503C58.2304 43.1802 58.2304 42.5807 57.8603 42.2107C57.4903 41.8406 56.8908 41.8406 56.5207 42.2107Z" fill="#070A0F"/>
<path d="M61.7934 52.3587C61.7907 52.3258 61.3308 46.4397 61.3308 46.4397L65.1841 41.9239C65.6295 41.4013 65.354 40.548 64.6854 40.3872C64.6706 40.3836 58.9124 38.9985 58.9124 38.9985L55.8075 33.937C55.4634 33.3763 54.5364 33.3763 54.1922 33.937L51.0873 38.9985L45.3143 40.3872C44.6444 40.5499 44.3637 41.3943 44.8158 41.924C44.8376 41.9496 48.669 46.4397 48.669 46.4397L48.2064 52.3589C48.1528 53.0382 48.8804 53.5694 49.5128 53.308C49.5368 53.2981 54.9999 51.0396 54.9999 51.0396L60.487 53.3081C61.1144 53.5669 61.8463 53.0357 61.7934 52.3587ZM55.3615 49.1393C55.1275 49.0425 54.871 49.043 54.6381 49.1393L50.2158 50.9674L50.5887 46.1973C50.6081 45.9465 50.5276 45.6995 50.3648 45.508L47.259 41.8684L51.9116 40.749C52.155 40.6897 52.3659 40.5371 52.4973 40.3234L54.9999 36.2443L57.5024 40.3234C57.6338 40.5371 57.8447 40.6897 58.0881 40.749L62.7407 41.8684L59.6349 45.508C59.4721 45.6995 59.3916 45.9465 59.411 46.1973L59.7839 50.9674C59.7839 50.9674 55.3636 49.1401 55.3615 49.1393Z" fill="#070A0F"/>
<path d="M72.566 47.6072C72.504 46.1088 71.2221 44.8684 69.697 44.8544C68.2898 44.8544 67.0723 45.8975 66.8586 47.2908L66.0231 52.7459C65.0882 52.44 64.0267 52.5811 63.2061 53.2202L58.8744 56.5943C57.9548 57.3108 57.3609 58.3858 57.2452 59.5441L56.3487 68.4442C56.293 68.9969 56.7377 69.486 57.2915 69.486H66.5246C67.0048 69.486 67.4091 69.127 67.4655 68.6505L67.9136 64.8837L72.7954 58.705C72.936 58.5269 73.0082 58.3049 72.9989 58.0782C72.9989 58.0782 72.5663 47.6156 72.566 47.6072ZM65.6836 67.5912H58.3388L58.756 63.4322L65.964 65.2339L65.6836 67.5912ZM66.6334 63.4485L58.95 61.5278L59.1307 59.7333C59.1955 59.0876 59.5257 58.4885 60.0383 58.0889L64.3699 54.7152C64.8399 54.3507 65.5199 54.4085 65.9205 54.8489C66.3331 55.3046 66.3137 55.9998 65.8752 56.4314L64.4467 57.8363C64.0739 58.2031 64.0683 58.8031 64.4356 59.1759C64.802 59.5483 65.4033 59.5534 65.7752 59.187L67.2037 57.7822C68.1987 56.8033 68.3752 55.3165 67.7248 54.1479L68.7312 47.578C68.8042 47.1039 69.2187 46.7491 69.7063 46.7491C70.2262 46.7542 70.6518 47.1654 70.6731 47.6858L71.0913 57.8058L66.6334 63.4485Z" fill="#070A0F"/>
<path d="M51.1253 56.5947L46.7937 53.2202C45.9728 52.5806 44.9108 52.4397 43.976 52.746L43.143 47.2899C42.9293 45.886 41.7376 44.8438 40.275 44.8535C38.7457 44.8701 37.5004 46.0802 37.4393 47.6086L37.4181 48.1521C37.3977 48.6749 37.8048 49.1152 38.3275 49.1356C38.8437 49.1684 39.2906 48.7498 39.3109 48.2262L39.3322 47.6831C39.3535 47.1645 39.7763 46.7538 40.2953 46.7482C40.7847 46.7482 41.1983 47.1021 41.2704 47.5758L42.2742 54.1503C41.6249 55.3188 41.8018 56.8041 42.796 57.7822L44.2245 59.1871C44.5973 59.5534 45.1987 59.5483 45.5641 59.176C45.9314 58.8031 45.9259 58.2031 45.553 57.8363L44.1246 56.4315C43.686 55.9999 43.6666 55.3046 44.0802 54.8485C44.4789 54.4086 45.1598 54.3498 45.6298 54.7153L49.9614 58.0893C50.474 58.4886 50.8043 59.0876 50.869 59.7329L51.0497 61.5278L43.3645 63.449L38.9076 57.8053L38.988 55.7871C39.0093 55.2639 38.6022 54.8235 38.0795 54.8027C37.5772 54.7759 37.1164 55.188 37.0952 55.7112L37.0008 58.0796C36.9915 58.3058 37.0637 58.5274 37.2034 58.7046L42.0868 64.8889L42.5342 68.6506C42.5906 69.127 42.9949 69.486 43.4751 69.486H52.7082C53.2615 69.486 53.7066 68.9965 53.651 68.4442C53.6478 68.4126 52.7545 59.5437 52.7545 59.5437C52.6389 58.3859 52.0449 57.3108 51.1253 56.5947ZM44.3161 67.5913L44.0357 65.2339L51.2437 63.4322L51.661 67.5913H44.3161Z" fill="#070A0F"/>
<path d="M38.2015 52.9314C38.7247 52.9314 39.1489 52.5072 39.1489 51.984C39.1489 51.4608 38.7247 51.0366 38.2015 51.0366C37.6783 51.0366 37.2542 51.4608 37.2542 51.984C37.2542 52.5072 37.6783 52.9314 38.2015 52.9314Z" fill="#070A0F"/>
<defs>
<filter id="filter0_dddddd_581_40" x="0.1712" y="0.1712" width="109.658" height="104.658" filterUnits="userSpaceOnUse" color-interpolation-filters="sRGB">
<feFlood flood-opacity="0" result="BackgroundImageFix"/>
<feColorMatrix in="SourceAlpha" type="matrix" values="0 0 0 0 0 0 0 0 0 0 0 0 0 0 0 0 0 0 127 0" result="hardAlpha"/>
<feOffset/>
<feGaussianBlur stdDeviation="0.3432"/>
<feColorMatrix type="matrix" values="0 0 0 0 0.243137 0 0 0 0 0.301961 0 0 0 0 0.0784314 0 0 0 1 0"/>
<feBlend mode="normal" in2="BackgroundImageFix" result="effect1_dropShadow_581_40"/>
<feColorMatrix in="SourceAlpha" type="matrix" values="0 0 0 0 0 0 0 0 0 0 0 0 0 0 0 0 0 0 127 0" result="hardAlpha"/>
<feOffset/>
<feGaussianBlur stdDeviation="0.6864"/>
<feColorMatrix type="matrix" values="0 0 0 0 0.243137 0 0 0 0 0.301961 0 0 0 0 0.0784314 0 0 0 1 0"/>
<feBlend mode="normal" in2="effect1_dropShadow_581_40" result="effect2_dropShadow_581_40"/>
<feColorMatrix in="SourceAlpha" type="matrix" values="0 0 0 0 0 0 0 0 0 0 0 0 0 0 0 0 0 0 127 0" result="hardAlpha"/>
<feOffset/>
<feGaussianBlur stdDeviation="2.4024"/>
<feColorMatrix type="matrix" values="0 0 0 0 0.243137 0 0 0 0 0.301961 0 0 0 0 0.0784314 0 0 0 1 0"/>
<feBlend mode="normal" in2="effect2_dropShadow_581_40" result="effect3_dropShadow_581_40"/>
<feColorMatrix in="SourceAlpha" type="matrix" values="0 0 0 0 0 0 0 0 0 0 0 0 0 0 0 0 0 0 127 0" result="hardAlpha"/>
<feOffset/>
<feGaussianBlur stdDeviation="4.8048"/>
<feColorMatrix type="matrix" values="0 0 0 0 0.243137 0 0 0 0 0.301961 0 0 0 0 0.0784314 0 0 0 1 0"/>
<feBlend mode="normal" in2="effect3_dropShadow_581_40" result="effect4_dropShadow_581_40"/>
<feColorMatrix in="SourceAlpha" type="matrix" values="0 0 0 0 0 0 0 0 0 0 0 0 0 0 0 0 0 0 127 0" result="hardAlpha"/>
<feOffset/>
<feGaussianBlur stdDeviation="8.2368"/>
<feColorMatrix type="matrix" values="0 0 0 0 0.243137 0 0 0 0 0.301961 0 0 0 0 0.0784314 0 0 0 1 0"/>
<feBlend mode="normal" in2="effect4_dropShadow_581_40" result="effect5_dropShadow_581_40"/>
<feColorMatrix in="SourceAlpha" type="matrix" values="0 0 0 0 0 0 0 0 0 0 0 0 0 0 0 0 0 0 127 0" result="hardAlpha"/>
<feOffset/>
<feGaussianBlur stdDeviation="14.4144"/>
<feColorMatrix type="matrix" values="0 0 0 0 0.243137 0 0 0 0 0.301961 0 0 0 0 0.0784314 0 0 0 1 0"/>
<feBlend mode="normal" in2="effect5_dropShadow_581_40" result="effect6_dropShadow_581_40"/>
<feBlend mode="normal" in="SourceGraphic" in2="effect6_dropShadow_581_40" result="shape"/>
</filter>
</defs>
</svg>
