<svg width="26" height="18" viewBox="0 0 26 18" fill="none" xmlns="http://www.w3.org/2000/svg">
<path d="M0.484727 0.501564C0.591456 0.388968 0.815078 0.225192 0.982795 0.143304L1.28773 0H24.7173L25.0222 0.143304C25.1899 0.225192 25.4135 0.388968 25.5152 0.501564C25.6219 0.619278 25.749 0.798408 25.8049 0.900768C25.8557 1.00825 25.9116 1.16179 25.9573 1.40233L19.5079 5.67586C15.9604 8.02502 13.033 9.94939 13.0025 9.94939C12.972 9.94939 10.0446 8.02502 0.0476468 1.40233L0.0781408 1.24879C0.0933878 1.16179 0.149293 1.00825 0.200117 0.900768C0.256022 0.798408 0.38308 0.619278 0.484727 0.501564Z" fill="#474747"/>
<path d="M0.0171529 14.6784C0.00190587 14.6784 -0.00317645 12.1194 0.00190587 8.99232C0.0120705 5.13847 0.0323998 3.32158 0.0679761 3.35229C0.0933878 3.383 2.06025 4.6932 4.42861 6.26443C7.75754 8.47541 8.72318 9.14074 8.67235 9.18169C8.63678 9.2124 6.68008 10.4663 4.32697 11.9608C1.96877 13.4552 0.0323998 14.6784 0.0171529 14.6784Z" fill="#474747"/>
<path d="M17.3326 9.18169C17.2818 9.14074 18.2627 8.46517 21.6272 6.2286L25.9878 3.33182L25.998 8.99232C26.0031 12.1041 25.998 14.6579 25.9878 14.6682C25.9726 14.6733 24.0362 13.4552 21.6831 11.9608C19.3249 10.4663 17.3682 9.2124 17.3326 9.18169Z" fill="#474747"/>
<path d="M0.0832231 16.7563C0.0679761 16.613 0.195034 16.5311 5.1503 13.3682C7.94558 11.5871 10.2377 10.1234 10.2479 10.1234C10.253 10.1234 10.7663 10.4612 11.3914 10.8706C12.0114 11.2801 12.5807 11.6486 12.662 11.6895C12.7382 11.7305 12.8907 11.7612 13.0025 11.7612C13.1143 11.7612 13.2668 11.7305 13.3481 11.6895C13.4243 11.6486 13.9885 11.2801 15.7317 10.1183L20.8344 13.3631C25.81 16.5311 25.937 16.613 25.9218 16.7563C25.9116 16.8382 25.8608 16.9918 25.8049 17.0941C25.7541 17.2016 25.6219 17.3807 25.5203 17.4984C25.4135 17.611 25.1899 17.7748 24.7173 18H1.28773L0.982795 17.8567C0.815078 17.7748 0.591456 17.611 0.489809 17.4984C0.38308 17.3807 0.25094 17.2016 0.200117 17.0941C0.144211 16.9918 0.0933878 16.8382 0.0832231 16.7563Z" fill="#474747"/>
</svg>
