<svg width="23" height="23" viewBox="0 0 23 23" fill="none" xmlns="http://www.w3.org/2000/svg">
<path d="M1.48387 0.359375C1.64575 0.278516 1.91554 0.161719 2.09091 0.107813C2.32473 0.0314453 2.52258 0.00449219 2.85533 0.00449219C3.18807 0 3.38592 0.0269531 3.61975 0.0943359C3.79062 0.148242 4.0784 0.260547 4.24927 0.350391C4.45611 0.458203 4.68094 0.628906 4.90127 0.853516C5.15758 1.10508 5.28798 1.28477 5.43187 1.57227C5.53529 1.7834 5.6522 2.09336 5.68817 2.26855C5.72414 2.44375 5.75562 2.71328 5.75562 2.875C5.75562 3.03672 5.72414 3.31074 5.68817 3.48145C5.6522 3.65215 5.53529 3.9666 5.43187 4.17773C5.28798 4.46523 5.15308 4.64492 4.90127 4.90098C4.64047 5.16152 4.4741 5.28281 4.18182 5.42656C3.97048 5.52988 3.65572 5.64668 3.48485 5.68262C3.31398 5.71855 3.03969 5.75 2.87781 5.75C2.71593 5.75 2.44614 5.71855 2.27077 5.68262C2.09541 5.64668 1.78514 5.52988 1.5738 5.42656C1.28153 5.28281 1.11065 5.15703 0.85435 4.89648C0.629521 4.67637 0.458651 4.45176 0.350733 4.24512C0.260802 4.07441 0.148387 3.78691 0.0944282 3.61621C0.0269795 3.3916 0 3.17598 0 2.875C0 2.57402 0.0269795 2.3584 0.0944282 2.13379C0.148387 1.95859 0.260802 1.68008 0.350733 1.50488C0.458651 1.29824 0.629521 1.07363 0.85435 0.853516C1.06119 0.646875 1.30401 0.453711 1.48387 0.359375Z" fill="#474747"/>
<path d="M8.34565 0.350391C8.46706 0.256055 8.66491 0.14375 8.79081 0.0943359C9.00665 0.0134766 9.22698 0.00898437 21.6735 0L21.9973 0.148242C22.1996 0.238086 22.402 0.372852 22.5234 0.494141C22.6313 0.606445 22.7842 0.826562 23 1.28027V4.46973L22.8606 4.76172C22.7842 4.92344 22.6358 5.13906 22.5369 5.24238C22.4334 5.3502 22.2131 5.50293 21.741 5.72754L15.4457 5.74102C9.26295 5.75 9.14604 5.75 8.85826 5.66016C8.69638 5.61074 8.46706 5.49844 8.34565 5.4041C8.22424 5.30977 8.05337 5.13457 7.97243 5.00879C7.887 4.8875 7.78807 4.68535 7.7521 4.55957C7.70264 4.38438 7.68915 4.01602 7.68915 2.875C7.68915 1.73398 7.70264 1.36563 7.7521 1.19043C7.78807 1.06914 7.887 0.866992 7.97243 0.741211C8.05337 0.61543 8.22424 0.440234 8.34565 0.350391Z" fill="#474747"/>
<path d="M0.148387 7.45254C0.206843 7.37168 0.323754 7.28184 0.409189 7.25039C0.530596 7.20098 1.46588 7.19199 5.26999 7.1875C9.89247 7.1875 9.9869 7.1875 10.1623 7.27734C10.2657 7.33125 10.3826 7.43906 10.4411 7.5334C10.504 7.64121 10.54 7.78047 10.54 7.90625C10.54 8.03203 10.504 8.17129 10.4411 8.27461C10.3826 8.37344 10.2657 8.48125 10.1623 8.53516C9.9869 8.625 9.89247 8.625 5.28348 8.625C1.47038 8.625 0.557576 8.61152 0.436168 8.5666C0.359726 8.53066 0.238319 8.44082 0.166373 8.36445C0.0989247 8.28359 0.0314761 8.14434 0.0179863 8.05C0.00449658 7.96016 0.00449658 7.81641 0.0179863 7.73555C0.0314761 7.65918 0.0944282 7.52891 0.148387 7.45254Z" fill="#474747"/>
<path d="M13.3099 7.4166C13.4223 7.35371 13.6022 7.27734 13.7146 7.2459C13.8674 7.20547 14.8792 7.19648 21.741 7.20996L22.0467 7.35371C22.2131 7.43457 22.4334 7.5873 22.5369 7.69062C22.6358 7.79844 22.7842 8.01406 23 8.46777V13.0947L22.8606 13.3867C22.7842 13.5484 22.6358 13.7641 22.5369 13.8674C22.4334 13.9752 22.2131 14.1279 21.741 14.3525H13.737L13.4448 14.2088C13.2469 14.1145 13.0761 13.9842 12.9142 13.8045C12.7748 13.6562 12.6309 13.4406 12.5769 13.2969C12.478 13.0543 12.478 13.0049 12.478 10.7812C12.478 8.55313 12.478 8.5082 12.5769 8.26562C12.6309 8.13086 12.7703 7.91074 12.8917 7.77598C13.0086 7.6457 13.1975 7.48398 13.3099 7.4166Z" fill="#474747"/>
<path d="M0.125904 10.359C0.197849 10.2646 0.323754 10.1613 0.409189 10.1254C0.535093 10.076 1.4434 10.067 5.26999 10.0625C9.89247 10.0625 9.9869 10.0625 10.1623 10.1523C10.2657 10.2063 10.3826 10.3141 10.4411 10.4129C10.504 10.5162 10.54 10.6555 10.54 10.7812C10.54 10.907 10.504 11.0463 10.4411 11.1541C10.3826 11.2484 10.2657 11.3562 10.1623 11.4102C9.9869 11.5 9.89247 11.5 5.28348 11.5C1.48387 11.5 0.557576 11.4865 0.440665 11.4416C0.359726 11.4057 0.224829 11.3023 0.143891 11.2035C0.0179863 11.0508 0 10.9924 0 10.7812C0 10.5791 0.0224829 10.5027 0.125904 10.359Z" fill="#474747"/>
<path d="M0.148387 13.2025C0.206843 13.1217 0.323754 13.0318 0.409189 13.0004C0.530596 12.951 1.46588 12.942 5.26999 12.9375C9.89247 12.9375 9.9869 12.9375 10.1623 13.0273C10.2657 13.0813 10.3826 13.1891 10.4411 13.2879C10.504 13.3912 10.54 13.5305 10.54 13.6562C10.54 13.782 10.504 13.9213 10.4411 14.0291C10.3826 14.1234 10.2657 14.2312 10.1623 14.2852C9.9869 14.375 9.89247 14.375 5.28348 14.375C1.47038 14.375 0.557576 14.3615 0.436168 14.3166C0.359726 14.2807 0.238319 14.1908 0.166373 14.1145C0.0989247 14.0336 0.0314761 13.8943 0.0179863 13.8045C0.00449658 13.7102 0.00449658 13.5664 0.0179863 13.49C0.0314761 13.4092 0.0944282 13.2789 0.148387 13.2025Z" fill="#474747"/>
<path d="M0.148387 16.0775C0.206843 15.9967 0.323754 15.9068 0.409189 15.8754C0.530596 15.826 1.46588 15.817 5.26999 15.8125C9.89247 15.8125 9.9869 15.8125 10.1623 15.9023C10.2657 15.9563 10.3826 16.0641 10.4411 16.1629C10.504 16.2662 10.54 16.4055 10.54 16.5312C10.54 16.657 10.504 16.7963 10.4411 16.9041C10.3826 16.9984 10.2657 17.1063 10.1623 17.1602C9.9869 17.25 9.89247 17.25 5.28348 17.25C1.47038 17.25 0.557576 17.2365 0.436168 17.1916C0.359726 17.1557 0.238319 17.0658 0.166373 16.9895C0.0989247 16.9086 0.0314761 16.7693 0.0179863 16.6795C0.00449658 16.5852 0.00449658 16.4414 0.0179863 16.365C0.0314761 16.2842 0.0944282 16.1539 0.148387 16.0775Z" fill="#474747"/>
<path d="M13.3099 16.0416C13.4223 15.9787 13.6022 15.9023 13.7146 15.8709C13.8674 15.8305 14.8792 15.8215 21.741 15.835L22.0467 15.9832C22.2131 16.0596 22.4334 16.2123 22.5369 16.3156C22.6358 16.4234 22.7842 16.6391 23 17.0928V21.7197L22.8606 22.0117C22.7842 22.1734 22.6313 22.3936 22.5234 22.5059C22.402 22.6271 22.1996 22.7619 21.6735 23H13.782L13.4673 22.8473C13.2424 22.7395 13.085 22.6182 12.9142 22.434C12.7748 22.2812 12.6309 22.0611 12.5769 21.9219C12.478 21.6793 12.478 21.6299 12.478 19.4062C12.478 17.1781 12.478 17.1332 12.5769 16.8906C12.6309 16.7559 12.7703 16.5357 12.8917 16.401C13.0086 16.2707 13.1975 16.109 13.3099 16.0416Z" fill="#474747"/>
<path d="M0.125904 18.984C0.197849 18.8896 0.323754 18.7863 0.409189 18.7504C0.535093 18.701 1.4434 18.692 5.26999 18.6875C9.89247 18.6875 9.9869 18.6875 10.1623 18.7773C10.2657 18.8312 10.3826 18.9391 10.4411 19.0379C10.504 19.1412 10.54 19.2805 10.54 19.4062C10.54 19.532 10.504 19.6713 10.4411 19.7791C10.3826 19.8734 10.2657 19.9813 10.1623 20.0352C9.9869 20.125 9.89247 20.125 5.28348 20.125C1.48387 20.125 0.557576 20.1115 0.440665 20.0666C0.359726 20.0307 0.224829 19.9273 0.143891 19.8285C0.0179863 19.6758 0 19.6174 0 19.4062C0 19.2041 0.0224829 19.1277 0.125904 18.984Z" fill="#474747"/>
<path d="M0.148387 21.8275C0.206843 21.7467 0.323754 21.6568 0.409189 21.6254C0.530596 21.576 1.46588 21.567 5.26999 21.5625C9.89247 21.5625 9.9869 21.5625 10.1623 21.6523C10.2657 21.7062 10.3826 21.8141 10.4411 21.9129C10.504 22.0162 10.54 22.1555 10.54 22.2812C10.54 22.407 10.504 22.5418 10.4456 22.6406C10.3961 22.726 10.2792 22.8428 10.0274 23H0.449658L0.251808 22.8113C0.107918 22.6721 0.0449658 22.5688 0.0224829 22.4385C0.00449658 22.3396 0.00449658 22.1914 0.0179863 22.115C0.0314761 22.0342 0.0944282 21.9039 0.148387 21.8275Z" fill="#474747"/>
</svg>
