<svg width="27" height="26" viewBox="0 0 27 26" fill="none" xmlns="http://www.w3.org/2000/svg">
<path fill-rule="evenodd" clip-rule="evenodd" d="M2.18848 0.00529532L24.7588 0L25.1701 0.132383C25.3916 0.206517 25.7027 0.344196 25.8504 0.439511C26.0033 0.540122 26.2143 0.709572 26.3145 0.826069C26.4199 0.937271 26.5676 1.13849 26.6467 1.27088C26.7258 1.40326 26.8365 1.66273 26.8945 1.85336C26.9525 2.05458 27 2.34582 27 2.55234C27 2.79593 26.9578 3.03951 26.8682 3.30957C26.7943 3.52668 26.6783 3.79674 26.6098 3.90265C26.5412 4.01385 26.3883 4.20448 26.267 4.32627C26.151 4.45336 25.94 4.62811 25.7977 4.71283C25.6605 4.80285 25.3969 4.92464 25.207 4.98289C24.8695 5.0835 24.685 5.0835 13.5 5.0835C2.31504 5.0835 2.13047 5.0835 1.79297 4.98289C1.60312 4.92464 1.32891 4.79756 1.18652 4.70754C1.03887 4.61222 0.817383 4.42688 0.685547 4.28921C0.553711 4.15153 0.379687 3.89735 0.295312 3.7279C0.210938 3.55316 0.110742 3.30957 0.0738281 3.17719C0.0316406 3.04481 0 2.78534 0 2.5947C0 2.40407 0.0421875 2.09695 0.0949219 1.90631C0.147656 1.71568 0.258398 1.44033 0.342773 1.29735C0.427148 1.15438 0.580078 0.942566 0.685547 0.831365C0.785742 0.714868 0.986133 0.545418 1.13379 0.450102C1.27617 0.354786 1.57676 0.211813 1.79297 0.137678L2.18848 0.00529532ZM12.6562 20.334H14.3438V21.6314L14.5969 21.7743C14.734 21.8485 14.9713 22.0497 15.1189 22.2086C15.2719 22.3727 15.4564 22.6322 15.5303 22.7857C15.6041 22.9393 15.6885 23.2147 15.7201 23.4053C15.757 23.6436 15.757 23.8501 15.7201 24.0672C15.6885 24.242 15.6199 24.4908 15.5672 24.6232C15.5092 24.7556 15.3932 24.9568 15.3088 25.0733C15.2244 25.1898 15.0504 25.3752 14.9186 25.4811C14.792 25.5923 14.5125 25.7511 14.3016 25.8411C13.9904 25.9735 13.848 26 13.5105 26C13.21 26 13.0201 25.9682 12.7881 25.8782C12.6141 25.8147 12.3662 25.6823 12.2344 25.5976C12.1025 25.5075 11.9074 25.3275 11.7967 25.2004C11.6859 25.0733 11.5383 24.8509 11.4697 24.7026C11.4012 24.5597 11.3168 24.2843 11.2852 24.0937C11.243 23.8448 11.243 23.6595 11.2799 23.4053C11.3115 23.2147 11.4012 22.9287 11.475 22.7699C11.5488 22.611 11.7387 22.3462 11.8916 22.1874C12.0445 22.0285 12.2818 21.8432 12.6562 21.6578V20.334ZM1.9459 6.222H25.0541L25.0225 17.6599L24.9064 17.9511C24.8432 18.1206 24.6744 18.3747 24.5109 18.5548C24.3211 18.7613 24.1207 18.9149 23.5459 19.1955H3.4541L3.11133 19.0314C2.8793 18.9149 2.67891 18.7613 2.48906 18.5548C2.32559 18.3747 2.15684 18.1206 1.97754 17.6599L1.9459 6.222ZM18.6732 8.22892C18.6047 8.29246 17.7293 9.33564 16.7326 10.5536C15.7359 11.7662 14.8975 12.7617 14.8711 12.7617C14.8395 12.7617 14.2752 12.4122 13.616 11.9886C12.9568 11.5597 12.3398 11.1784 12.2449 11.1413C12.15 11.099 11.9865 11.0672 11.8758 11.0672C11.765 11.0672 11.5699 11.1255 11.4328 11.189C11.2588 11.2737 10.5416 11.9409 8.91211 13.5295C7.2457 15.1605 6.61816 15.8065 6.56016 15.9548C6.51797 16.0607 6.48633 16.2725 6.48633 16.4155C6.48633 16.5743 6.52324 16.765 6.58652 16.8815C6.63926 16.9874 6.75 17.1409 6.83438 17.2204C6.91875 17.2998 7.07168 17.4004 7.18242 17.4481C7.29316 17.4904 7.48301 17.5275 7.6043 17.5275C7.72559 17.5275 7.93125 17.4798 8.05254 17.4216C8.20547 17.3527 8.88047 16.7226 10.125 15.5047C11.1428 14.5039 11.9918 13.6831 12.0129 13.6725C12.0287 13.6672 12.6035 14.022 13.2891 14.4615C13.9693 14.9063 14.6021 15.2982 14.6971 15.3405C14.792 15.3776 14.9818 15.4094 15.1189 15.4094C15.2561 15.4094 15.467 15.3617 15.583 15.3088C15.699 15.2558 15.8625 15.134 15.9574 15.0334C16.0471 14.9328 17.0648 13.699 18.2197 12.2851C19.3746 10.8713 20.366 9.63218 20.4188 9.53157C20.4926 9.39389 20.5137 9.26151 20.5031 8.99674C20.4873 8.7055 20.4557 8.60489 20.3291 8.41426C20.2395 8.29246 20.0654 8.13361 19.9336 8.06477C19.7596 7.98004 19.6119 7.94297 19.4062 7.94297C19.2428 7.94827 19.0424 7.98534 18.958 8.03299C18.8684 8.08065 18.7418 8.16538 18.6732 8.22892Z" fill="#474747"/>
</svg>
