<svg width="26" height="27" viewBox="0 0 26 27" fill="none" xmlns="http://www.w3.org/2000/svg">
<path fill-rule="evenodd" clip-rule="evenodd" d="M11.3973 0.00527344L14.5519 0L14.8724 0.158203C15.0454 0.242578 15.2744 0.406055 15.3761 0.516797C15.4779 0.622266 15.6153 0.833203 15.6814 0.975586C15.7679 1.1707 15.829 1.5293 15.9307 2.37305C16.007 2.99531 16.0935 3.5332 16.1241 3.56484C16.1546 3.59648 16.353 3.69141 16.5616 3.77051C16.7703 3.84961 17.0806 3.98672 17.2485 4.07637C17.508 4.2082 17.5691 4.21875 17.6556 4.16602C17.7115 4.1291 18.1033 3.81797 18.5205 3.48047C18.9429 3.14297 19.3855 2.81074 19.5127 2.74219C19.6552 2.66836 19.8689 2.61035 20.0724 2.59453C20.2963 2.57871 20.4998 2.5998 20.7084 2.66309C21.0035 2.74746 21.0493 2.78438 22.1941 3.9709C23.3389 5.15742 23.3746 5.20488 23.456 5.51074C23.517 5.72695 23.5374 5.93789 23.5221 6.16992C23.5068 6.38086 23.4509 6.60234 23.3796 6.75C23.3135 6.88184 22.9879 7.35645 22.6521 7.80469C22.3162 8.25293 22.0211 8.65371 21.9957 8.69063C21.9703 8.72754 22.0415 8.95957 22.1789 9.2918C22.301 9.59238 22.4282 9.91934 22.4587 10.0195C22.4841 10.1197 22.5401 10.2305 22.5757 10.2621C22.6114 10.2938 23.1354 10.3834 23.7358 10.4625C24.5499 10.568 24.8959 10.6313 25.0841 10.7209C25.2266 10.7895 25.4301 10.9371 25.537 11.0531C25.6489 11.1639 25.7965 11.3906 26 11.8389V15.1611L25.8677 15.4512C25.7965 15.6094 25.6489 15.8361 25.537 15.9469C25.4301 16.0576 25.2266 16.2053 25.0841 16.2738C24.8908 16.3687 24.5652 16.432 23.7358 16.5375C23.1354 16.6166 22.6114 16.7062 22.5757 16.7379C22.5401 16.7695 22.4841 16.8803 22.4587 16.9805C22.4282 17.0807 22.301 17.4076 22.1789 17.7029C22.0415 18.0404 21.9703 18.2725 21.9957 18.3094C22.0211 18.3463 22.3162 18.7471 22.6521 19.1953C22.9879 19.6436 23.3186 20.1182 23.3847 20.25C23.4865 20.4504 23.5068 20.5611 23.5068 20.9619C23.5068 21.3732 23.4865 21.4734 23.3695 21.7002C23.2779 21.8795 22.8759 22.3383 22.1229 23.1082C21.0544 24.2051 21.0035 24.2525 20.7084 24.3369C20.4998 24.4002 20.2963 24.4213 20.0724 24.4055C19.8689 24.3896 19.6552 24.3316 19.5127 24.2578C19.3855 24.1893 18.9429 23.857 18.5205 23.5195C18.1033 23.182 17.7115 22.8709 17.6556 22.834C17.5691 22.7812 17.508 22.7918 17.2485 22.9236C17.0806 23.0133 16.7703 23.1504 16.5616 23.2295C16.353 23.3086 16.1546 23.4035 16.1241 23.4352C16.0935 23.4668 16.007 24.0047 15.9307 24.627C15.829 25.4707 15.7679 25.8293 15.6814 26.0244C15.6153 26.1668 15.4779 26.3777 15.3761 26.4832C15.2744 26.5939 15.0454 26.7574 14.5519 27H11.4481L11.1327 26.8418C10.9546 26.7574 10.7256 26.5939 10.6239 26.4832C10.5221 26.3777 10.3847 26.1668 10.3186 26.0244C10.2372 25.8293 10.171 25.476 10.0744 24.6797C10.0031 24.0838 9.9319 23.5512 9.92172 23.4932C9.90646 23.4193 9.8047 23.3508 9.55538 23.2611C9.36712 23.1979 9.03131 23.0555 8.81761 22.9447C8.5225 22.8023 8.41057 22.7707 8.35969 22.8129C8.32407 22.8445 7.93738 23.1557 7.50489 23.5037C7.07241 23.8518 6.61448 24.1945 6.48728 24.2631C6.29393 24.3686 6.18708 24.3896 5.80039 24.3896C5.40352 24.3896 5.30685 24.3686 5.08806 24.2473C4.91507 24.1523 4.47241 23.7357 3.72955 22.9553C2.67123 21.8479 2.62544 21.7951 2.54403 21.4893C2.48297 21.273 2.46262 21.0621 2.47789 20.8301C2.49315 20.6191 2.54912 20.3977 2.62035 20.25C2.6865 20.1182 3.01213 19.6436 3.34795 19.1953C3.68376 18.7471 3.97886 18.3463 4.0043 18.3094C4.02975 18.2725 3.95851 18.0404 3.82113 17.7029C3.69902 17.4076 3.57182 17.0807 3.54129 16.9805C3.51585 16.8803 3.45988 16.7695 3.42427 16.7379C3.38865 16.7062 2.86458 16.6166 2.26419 16.5375C1.4501 16.432 1.10411 16.3688 0.915851 16.2791C0.778474 16.2105 0.569863 16.0629 0.463014 15.9469C0.351076 15.8361 0.203523 15.6094 0 15.1611V11.7861L0.142466 11.5066C0.218787 11.359 0.366341 11.1428 0.47319 11.0373C0.574951 10.9318 0.778474 10.7895 0.915851 10.7262C1.10411 10.6365 1.45519 10.568 2.26419 10.4625C2.86458 10.3834 3.38865 10.2938 3.42427 10.2621C3.45988 10.2305 3.51585 10.1197 3.54129 10.0195C3.57182 9.91934 3.69902 9.59238 3.82113 9.2918C3.95851 8.95957 4.02975 8.72754 4.0043 8.68535C3.97886 8.65371 3.68376 8.25293 3.34795 7.80469C3.01213 7.35645 2.6865 6.88184 2.62035 6.75C2.54912 6.60234 2.49315 6.38086 2.47789 6.16992C2.46262 5.93789 2.48297 5.72695 2.54403 5.51074C2.62544 5.20488 2.66106 5.15742 3.80587 3.9709C4.95069 2.78438 4.99648 2.74746 5.29158 2.66309C5.5002 2.5998 5.70372 2.57871 5.92759 2.59453C6.13112 2.61035 6.3499 2.66836 6.48728 2.74219C6.61448 2.80547 7.01135 3.10078 7.37769 3.39082C7.74403 3.68613 8.12564 3.99727 8.42074 4.24512L8.93973 3.99727C9.22974 3.86543 9.54521 3.72832 9.64188 3.69668C9.73855 3.67031 9.8454 3.6123 9.87593 3.57539C9.90646 3.53848 9.99295 2.99531 10.0693 2.37305C10.171 1.5293 10.2321 1.1707 10.3186 0.975586C10.3847 0.82793 10.5221 0.622266 10.6239 0.511523C10.7256 0.406055 10.9444 0.247852 11.1072 0.158203L11.3973 0.00527344ZM11.6262 8.06836C11.3871 8.13164 10.9851 8.28457 10.7358 8.40586C10.4814 8.53242 10.1252 8.73281 9.94716 8.85938C9.76399 8.98594 9.43327 9.2707 9.21448 9.49219C8.9957 9.7084 8.70059 10.067 8.55812 10.2885C8.41566 10.5047 8.19687 10.8949 8.07984 11.1586C7.96282 11.417 7.81526 11.823 7.7593 12.0551C7.69824 12.2871 7.62701 12.6984 7.59648 12.9779C7.56086 13.3313 7.56086 13.6318 7.59648 14.0063C7.62701 14.2963 7.69824 14.7234 7.7593 14.9555C7.81526 15.1875 7.96282 15.5883 8.07984 15.852C8.19687 16.1104 8.41566 16.5006 8.55812 16.7221C8.70059 16.9383 8.9957 17.2969 9.21448 17.5131C9.43327 17.7346 9.76399 18.0193 9.94716 18.1459C10.1252 18.2725 10.4814 18.4729 10.7358 18.5994C10.9851 18.7207 11.3718 18.8736 11.6008 18.9316C11.8247 18.9949 12.2215 19.0688 12.4912 19.1004C12.8321 19.1373 13.1221 19.1373 13.4834 19.1004C13.7632 19.0688 14.1753 18.9949 14.3992 18.9316C14.618 18.8736 15.0098 18.726 15.2642 18.5994C15.5135 18.4781 15.8697 18.2725 16.0528 18.1459C16.2309 18.0193 16.5616 17.7346 16.7804 17.5131C16.9992 17.2969 17.2943 16.9383 17.4368 16.7221C17.5793 16.5006 17.798 16.1104 17.9151 15.852C18.0321 15.5883 18.1796 15.1875 18.2356 14.9555C18.2967 14.7234 18.3679 14.2963 18.3984 14.0063C18.4341 13.6318 18.4341 13.3313 18.3984 12.9779C18.3679 12.6984 18.2967 12.2871 18.2356 12.0551C18.1796 11.823 18.0321 11.417 17.9151 11.1586C17.798 10.8949 17.5793 10.5047 17.4368 10.2885C17.2943 10.067 16.9992 9.7084 16.7804 9.49219C16.5616 9.2707 16.2309 8.98594 16.0528 8.85938C15.8697 8.73281 15.5135 8.52715 15.2642 8.40586C15.0098 8.2793 14.618 8.13164 14.3992 8.07363C14.1753 8.01035 13.7937 7.9418 13.5597 7.91016C13.3205 7.88379 13.0305 7.8627 12.9237 7.86797C12.8117 7.87324 12.5675 7.89434 12.3894 7.91543C12.2063 7.93652 11.8603 8.00508 11.6262 8.06836Z" fill="#474747"/>
</svg>
