<svg width="28" height="28" viewBox="0 0 28 28" fill="none" xmlns="http://www.w3.org/2000/svg">
<path d="M23.9794 0.132939C24.5811 0.0837136 25.1117 0.0399577 25.1555 0.0290187C25.1993 0.0180797 25.7135 0.00714073 26.2878 0.00167123C27.3217 -0.00379826 27.349 -0.00379826 27.5624 0.132939C27.6882 0.209512 27.825 0.362658 27.8906 0.488456C27.9508 0.608785 28 0.789278 28 0.882259C27.9945 0.98071 27.9672 1.12839 27.9289 1.21043C27.8906 1.29247 27.6061 1.63705 27.2834 1.97616C26.9661 2.31527 26.4355 2.9005 26.1073 3.2779C25.7791 3.65529 25.2212 4.3171 24.8765 4.75466C24.5264 5.19222 24.0834 5.76652 23.8864 6.03999C23.6895 6.308 23.3339 6.8276 23.0987 7.18858C22.858 7.54957 22.5025 8.17309 22.3001 8.5669C22.0922 8.96617 21.9281 9.33262 21.9281 9.37638C21.9281 9.44748 21.9992 9.45295 22.3548 9.42561C22.5845 9.4092 23.0987 9.35997 23.4871 9.31622C23.8755 9.26699 24.4225 9.17401 24.6905 9.10291C24.9586 9.03727 25.3688 8.90053 25.5931 8.80755C25.8174 8.71457 26.1292 8.53955 26.2769 8.41922C26.4301 8.29889 26.6489 8.15121 26.7692 8.09105C26.8896 8.03089 27.0482 7.98166 27.1248 7.98166C27.2014 7.98166 27.3709 8.03636 27.5077 8.10199C27.6827 8.19497 27.7921 8.29889 27.8851 8.47391L27.8875 8.47837C28.0165 8.72013 28.0215 8.72946 27.9508 9.37638C27.9125 9.73737 27.8195 10.3773 27.7484 10.7984C27.6718 11.2196 27.5405 11.8705 27.4475 12.2479C27.3545 12.6253 27.1685 13.2652 27.0372 13.6699C26.9114 14.0747 26.7036 14.649 26.5778 14.9389C26.4574 15.2342 26.2113 15.7647 26.0362 16.1148C25.8612 16.4703 25.5439 17.0173 25.336 17.3345C25.1282 17.6517 24.7562 18.144 24.51 18.4284C24.2639 18.7128 23.8755 19.1066 23.6457 19.3035C23.416 19.5004 23.055 19.7794 22.8416 19.9216C22.6228 20.0692 22.1524 20.3318 21.7914 20.5068C21.4303 20.6818 20.8888 20.9225 20.5879 21.0428C20.2871 21.1631 19.7182 21.36 19.3298 21.4858C18.9414 21.6116 18.5585 21.7156 18.4819 21.7265C18.3561 21.7374 18.3451 21.7156 18.2357 20.9936L19.7346 19.4512C20.5606 18.6034 21.5124 17.6244 21.8461 17.2798C22.3001 16.8094 22.5025 16.5633 22.6283 16.2953C22.7213 16.0984 22.8252 15.7538 22.8635 15.5296C22.9127 15.2069 22.9127 15.0373 22.8635 14.7365C22.8252 14.5232 22.7268 14.2005 22.6338 14.009C22.5462 13.8231 22.3438 13.5277 22.1797 13.3527C22.0211 13.1831 21.7421 12.9644 21.5671 12.8659C21.392 12.7729 21.1459 12.669 21.0255 12.6307C20.9052 12.5979 19.5759 12.3791 15.3475 11.7283L14.3738 9.64986C13.8377 8.50673 13.2634 7.28703 13.0993 6.94246C12.9078 6.53224 12.7109 6.20954 12.5358 6.01264C12.3827 5.84856 12.142 5.63525 11.9943 5.5368C11.8466 5.43835 11.6168 5.32349 11.4801 5.27426C11.3433 5.22504 11.0808 5.1594 10.8948 5.13205C10.6705 5.09924 10.4189 5.10471 10.1837 5.13752C9.97579 5.17034 9.66399 5.26332 9.48347 5.35083C9.30296 5.43288 9.04586 5.59696 8.9091 5.71182C8.77235 5.82668 8.58636 6.01811 8.4879 6.14391C8.38944 6.26971 7.74396 7.57692 5.79111 11.7283L4.30322 11.958C3.4827 12.0838 2.80439 12.1822 2.79892 12.1768C2.79345 12.1713 2.74422 11.9088 2.69499 11.5915C2.64029 11.2251 2.60747 10.6891 2.60747 10.1148C2.60747 9.535 2.64029 8.99899 2.70046 8.61065C2.74969 8.27701 2.86457 7.76288 2.95756 7.46206C3.04508 7.16124 3.23107 6.67992 3.36235 6.39551C3.49911 6.11109 3.73979 5.679 3.89843 5.43835C4.06253 5.19769 4.38527 4.79295 4.62049 4.54135C4.86118 4.28975 5.22768 3.93971 5.43555 3.77015C5.64341 3.6006 6.02632 3.31618 6.28342 3.14663C6.54052 2.97707 7.06566 2.67625 7.45951 2.48482C7.85336 2.28792 8.54807 2.00898 9.00757 1.85583C9.46159 1.70815 10.2001 1.51125 10.6431 1.41827C11.0917 1.33076 11.77 1.22684 12.1639 1.18855C12.6945 1.13933 12.9297 1.13933 13.0938 1.18308C13.2196 1.22137 13.3837 1.32529 13.4876 1.44015C13.597 1.55501 13.6846 1.71909 13.701 1.83942C13.7174 1.95428 13.7229 2.12383 13.7064 2.21135C13.6846 2.29886 13.5752 2.49576 13.4493 2.64891C13.329 2.79658 13.143 3.081 13.0446 3.2779C12.9406 3.4748 12.8312 3.7428 12.7984 3.87954C12.7601 4.01628 12.7492 4.13114 12.7656 4.13661C12.782 4.14755 12.9953 3.97799 13.2415 3.76468C13.4931 3.55137 13.9635 3.19585 14.2972 2.97708C14.6309 2.75283 15.1834 2.43013 15.528 2.24963C15.8726 2.06914 16.5017 1.78473 16.9229 1.62064C17.3441 1.45109 18.0716 1.20496 18.5366 1.07369C19.0016 0.936954 19.74 0.750992 20.1777 0.65801C20.6153 0.570498 21.403 0.433761 21.9281 0.357188C22.4532 0.280615 23.3777 0.176695 23.9794 0.132939Z" fill="#474747"/>
<path d="M9.92109 7.18311C10.0141 7.07919 10.1837 6.95887 10.304 6.91511C10.4243 6.87135 10.5939 6.84948 10.6869 6.87135C10.7799 6.88776 10.9112 6.93152 10.9878 6.9698C11.0644 7.00809 11.1683 7.08466 11.2175 7.13936C11.2667 7.19952 11.9505 8.61065 12.7382 10.2788C13.5205 11.947 14.1714 13.3199 14.1769 13.3199C14.1823 13.3254 15.6046 13.5441 17.3332 13.8067C19.2204 14.0911 20.5551 14.3208 20.6645 14.3755C20.7684 14.4247 20.8997 14.5232 20.9544 14.5997C21.0146 14.6763 21.0857 14.8349 21.1185 14.9553C21.1678 15.1193 21.1623 15.2287 21.1076 15.3928C21.0529 15.5678 20.6809 15.9781 19.3352 17.3509C18.3999 18.3081 17.3496 19.391 16.3595 20.4248L16.9065 23.7885C17.2839 26.1076 17.4426 27.2124 17.4152 27.3437C17.3933 27.4695 17.2949 27.6171 17.1362 27.7703C16.912 27.9836 16.8737 28 16.5783 28C16.4087 28 16.2446 27.9781 16.2118 27.9508C16.179 27.9234 14.9646 27.2452 13.504 26.4412C12.0435 25.6372 10.7908 24.9426 10.7143 24.8988C10.583 24.8222 10.4681 24.8769 7.78772 26.3592C6.2506 27.2069 4.97605 27.9234 4.94323 27.9508C4.91588 27.9781 4.76271 28 4.60408 28C4.39621 28 4.25946 27.9672 4.1227 27.8797C4.01877 27.8086 3.88202 27.6554 3.81638 27.5351C3.71244 27.3491 3.7015 27.2671 3.72885 26.9608C3.75073 26.7639 3.99142 25.2106 4.77913 20.4083L2.47071 18.0401C1.19616 16.7328 0.11854 15.5788 0.0693086 15.4749C0.00366655 15.3436 -0.012744 15.2069 0.00913672 15.0373C0.0255472 14.9006 0.0857191 14.731 0.140421 14.6599C0.195123 14.5888 0.299056 14.4849 0.375638 14.4247C0.485042 14.3372 1.14146 14.2224 6.9836 13.3144L8.37303 10.3445C9.13338 8.7091 9.82809 7.2925 9.92109 7.18311Z" fill="#474747"/>
</svg>
