<svg width="22" height="24" viewBox="0 0 22 24" fill="none" xmlns="http://www.w3.org/2000/svg">
<path d="M9.19759 0.306675C9.38843 0.248513 9.78072 0.158625 10.0723 0.10575C10.3639 0.0528751 10.7508 0.00528751 10.9311 0C11.1166 0 11.546 0.0423001 11.8853 0.10575C12.2299 0.163913 12.6911 0.27495 12.9084 0.343688C13.1258 0.417713 13.4969 0.576338 13.7301 0.697951C13.9634 0.819564 14.3345 1.05221 14.5518 1.21613C14.7692 1.38004 15.1137 1.68672 15.3152 1.9035C15.5219 2.12029 15.8188 2.4957 15.9778 2.74422C16.1369 2.99273 16.3542 3.38401 16.4496 3.61666C16.5504 3.84931 16.6935 4.26702 16.7624 4.54197C16.8366 4.83278 16.9002 5.28751 16.9214 5.62591C16.9373 5.97488 16.9267 6.39789 16.8843 6.68341C16.8525 6.9425 16.7624 7.36021 16.6882 7.60872C16.6193 7.85724 16.4761 8.23794 16.3754 8.45473C16.2694 8.67151 16.0627 9.04164 15.9036 9.27429C15.7499 9.50694 15.4371 9.88235 15.2039 10.1097C14.9759 10.3318 14.6472 10.6226 14.4723 10.7548C14.2973 10.887 13.9369 11.0985 13.6771 11.2307C13.4173 11.3576 13.0569 11.5109 12.8819 11.5691C12.707 11.6219 12.373 11.7118 12.1398 11.7647C11.857 11.8246 11.4771 11.8546 11 11.8546C10.5229 11.8546 10.143 11.8246 9.86024 11.7647C9.62699 11.7118 9.29301 11.6219 9.11807 11.5691C8.94313 11.5109 8.59855 11.3629 8.3494 11.2412C8.10024 11.1196 7.71855 10.887 7.5012 10.7231C7.28386 10.5644 6.94458 10.2631 6.74313 10.0621C6.54699 9.8612 6.27663 9.54395 6.1441 9.3536C6.01157 9.16325 5.81012 8.83014 5.7041 8.61335C5.59277 8.39656 5.43904 8.02644 5.36482 7.79379C5.2906 7.56114 5.19518 7.22802 5.15807 7.05354C5.11566 6.8579 5.09446 6.40846 5.09446 5.89028C5.09976 5.1659 5.12096 4.97555 5.23229 4.54197C5.30651 4.26702 5.43904 3.85988 5.53446 3.64309C5.62458 3.42631 5.83663 3.03503 6.00627 2.77065C6.1759 2.50628 6.47807 2.12029 6.67952 1.9035C6.88626 1.68672 7.24145 1.36946 7.4747 1.19498C7.70795 1.02578 8.11614 0.777264 8.3759 0.645076C8.63566 0.518176 9.00675 0.364838 9.19759 0.306675Z" fill="#474747"/>
<path d="M8.87952 13.8533C9.21349 13.8215 9.59518 13.7845 9.72771 13.774C9.86024 13.7634 10.5759 13.7634 11.3181 13.7687C12.0973 13.7792 12.9614 13.8215 13.359 13.8691C13.7354 13.9167 14.3345 14.0013 14.6843 14.0595C15.0342 14.1229 15.6651 14.2551 16.0892 14.3556C16.5133 14.4613 17.2395 14.6675 17.706 14.8209C18.1725 14.9742 18.8511 15.228 19.2169 15.3814C19.5826 15.5347 20.1817 15.8096 20.5528 15.9947C21.014 16.2221 21.3055 16.4071 21.4699 16.5711C21.6024 16.7032 21.772 16.9465 22 17.4171V22.4931L21.8357 22.8367C21.7455 23.0271 21.5653 23.2862 21.4381 23.4184C21.2949 23.5611 21.0564 23.7198 20.4361 24H1.56386L1.17687 23.8255C0.954217 23.7198 0.699759 23.5506 0.561928 23.4131C0.434699 23.2862 0.254458 23.0271 0 22.4931V17.4171L0.143133 17.1157C0.227952 16.9465 0.39759 16.7032 0.53012 16.5711C0.70506 16.3966 0.991325 16.2221 1.57446 15.9366C2.01976 15.7145 2.74072 15.3972 3.18072 15.228C3.61542 15.0588 4.21446 14.842 4.50602 14.7469C4.79759 14.657 5.40723 14.4878 5.85783 14.3767C6.30843 14.2604 7.0347 14.1124 7.4747 14.0383C7.9094 13.9696 8.54554 13.885 8.87952 13.8533Z" fill="#474747"/>
</svg>
