<svg width="128" height="128" viewBox="0 0 128 128" fill="none" xmlns="http://www.w3.org/2000/svg">
<path d="M32.2022 102C26.2677 102 20.5805 101.23 15.1406 99.6906C9.70068 98.081 5.32048 96.0166 2 93.4972L7.82849 80.6906C11.0077 82.93 14.752 84.7845 19.0616 86.2541C23.4418 87.6538 27.8573 88.3536 32.3082 88.3536C35.6993 88.3536 38.4193 88.0387 40.4681 87.4088C42.5875 86.709 44.1418 85.7643 45.1309 84.5746C46.1199 83.3849 46.6145 82.0203 46.6145 80.4807C46.6145 78.5212 45.8373 76.9816 44.2831 75.8619C42.7288 74.6722 40.68 73.7274 38.1367 73.0276C35.5933 72.2578 32.7674 71.558 29.6588 70.9282C26.621 70.2284 23.5478 69.3886 20.4392 68.4088C17.4014 67.4291 14.6107 66.1694 12.0674 64.6298C9.52405 63.0902 7.43993 61.0608 5.81501 58.5414C4.26075 56.0221 3.48362 52.8029 3.48362 48.884C3.48362 44.6851 4.61399 40.8711 6.87474 37.442C9.20614 33.9429 12.6679 31.1786 17.2601 29.1492C21.9228 27.0497 27.7513 26 34.7455 26C39.4083 26 44.0005 26.5599 48.522 27.6796C53.0435 28.7293 57.0351 30.3389 60.4969 32.5083L55.1982 45.4199C51.7365 43.4604 48.2747 42.0258 44.8129 41.116C41.3512 40.1363 37.96 39.6464 34.6396 39.6464C31.3191 39.6464 28.5991 40.0313 26.4797 40.8011C24.3602 41.5709 22.8413 42.5856 21.9228 43.8453C21.0044 45.035 20.5452 46.4346 20.5452 48.0442C20.5452 49.9337 21.3223 51.4733 22.8766 52.663C24.4309 53.7827 26.4797 54.6924 29.023 55.3923C31.5664 56.0921 34.357 56.7919 37.3949 57.4917C40.5034 58.1915 43.5766 58.9963 46.6145 59.9061C49.723 60.8158 52.5489 62.0405 55.0923 63.5801C57.6356 65.1197 59.6844 67.1492 61.2387 69.6685C62.8636 72.1878 63.6761 75.372 63.6761 79.221C63.6761 83.3499 62.5104 87.1289 60.179 90.558C57.8476 93.9871 54.3505 96.7514 49.6877 98.8508C45.0955 100.95 39.267 102 32.2022 102Z" fill="#B7ED1D"/>
<path d="M95.8712 102C90.0017 102 84.3769 101.23 78.9966 99.6906C73.6163 98.081 69.2841 96.0166 66 93.4972L71.7646 80.6906C74.9089 82.93 78.6123 84.7845 82.8746 86.2541C87.2068 87.6538 91.5739 88.3536 95.9759 88.3536C99.3299 88.3536 102.02 88.0387 104.046 87.4088C106.143 86.709 107.68 85.7643 108.658 84.5746C109.636 83.3849 110.125 82.0203 110.125 80.4807C110.125 78.5212 109.357 76.9816 107.82 75.8619C106.282 74.6722 104.256 73.7274 101.741 73.0276C99.2251 72.2578 96.4301 71.558 93.3556 70.9282C90.3511 70.2284 87.3116 69.3886 84.2371 68.4088C81.2325 67.4291 78.4725 66.1694 75.9571 64.6298C73.4416 63.0902 71.3803 61.0608 69.7732 58.5414C68.236 56.0221 67.4673 52.8029 67.4673 48.884C67.4673 44.6851 68.5854 40.8711 70.8213 37.442C73.1272 33.9429 76.5509 31.1786 81.0928 29.1492C85.7044 27.0497 91.4691 26 98.3866 26C102.998 26 107.54 26.5599 112.012 27.6796C116.484 28.7293 120.432 30.3389 123.856 32.5083L118.615 45.4199C115.191 43.4604 111.767 42.0258 108.344 41.116C104.92 40.1363 101.566 39.6464 98.2818 39.6464C94.9977 39.6464 92.3076 40.0313 90.2113 40.8011C88.1151 41.5709 86.6128 42.5856 85.7044 43.8453C84.7961 45.035 84.3419 46.4346 84.3419 48.0442C84.3419 49.9337 85.1105 51.4733 86.6478 52.663C88.185 53.7827 90.2113 54.6924 92.7268 55.3923C95.2423 56.0921 98.0023 56.7919 101.007 57.4917C104.081 58.1915 107.121 58.9963 110.125 59.9061C113.2 60.8158 115.995 62.0405 118.51 63.5801C121.026 65.1197 123.052 67.1492 124.589 69.6685C126.196 72.1878 127 75.372 127 79.221C127 83.3499 125.847 87.1289 123.541 90.558C121.235 93.9871 117.777 96.7514 113.165 98.8508C108.623 100.95 102.859 102 95.8712 102Z" fill="#B7ED1D"/>
</svg>
