<svg width="23" height="23" viewBox="0 0 23 23" fill="none" xmlns="http://www.w3.org/2000/svg">
<path fill-rule="evenodd" clip-rule="evenodd" d="M9.57519 0C9.79128 0 9.87681 0.0269531 10.0659 0.148242C10.2144 0.238086 10.3405 0.363867 10.417 0.494141C10.5161 0.669336 10.5341 0.75918 10.5701 1.72949L10.3315 2.08887C10.2054 2.28652 9.99835 2.65039 9.87681 2.89746C9.75526 3.14453 9.57969 3.58926 9.48066 3.88574C9.38612 4.18223 9.26907 4.62695 9.22406 4.87402C9.15653 5.22441 9.13852 5.53438 9.13852 6.2666C9.14303 7.0752 9.15653 7.28184 9.24656 7.7041C9.30059 7.97813 9.41763 8.40938 9.50767 8.66992C9.5932 8.93047 9.76877 9.35273 9.89932 9.61328C10.0299 9.87383 10.2595 10.2691 10.408 10.4893C10.5566 10.7094 10.8177 11.0553 10.9887 11.2484C11.1598 11.4461 11.4839 11.7695 11.7045 11.9627C11.9251 12.1604 12.2492 12.4164 12.4248 12.5332C12.6004 12.65 12.911 12.8387 13.1226 12.9555C13.3341 13.0723 13.7078 13.2475 13.9554 13.3463C14.203 13.4451 14.5901 13.5754 14.8107 13.6338C15.0313 13.6922 15.4274 13.773 15.6885 13.809C15.9497 13.8494 16.3143 13.8809 16.8365 13.8764L16.9805 14.1594C17.0571 14.3166 17.2416 14.6266 17.3902 14.8467C17.5388 15.0668 17.7774 15.3857 17.9214 15.552C18.07 15.7137 18.3446 15.9967 18.5381 16.1809C18.7632 16.3875 18.9343 16.5896 19.0018 16.7334C19.0604 16.8592 19.1324 17.0793 19.1594 17.2275C19.1954 17.4297 19.1954 17.5645 19.1549 17.7666C19.1234 17.9148 19.0513 18.1305 18.9928 18.2518C18.9343 18.3686 18.8173 18.5393 18.7317 18.6336C18.6507 18.7234 18.4616 18.8627 18.3176 18.9436C18.169 19.0199 17.9304 19.1053 17.7819 19.1367C17.5838 19.1727 15.3194 19.1816 1.3055 19.1592L1.05791 19.0604C0.913852 19.0064 0.697769 18.8627 0.549212 18.7234C0.369142 18.5617 0.238592 18.391 0.144056 18.1934C0.0135052 17.9328 0 17.8609 0 17.4971C0 17.1377 0.0180069 17.0613 0.139554 16.8008C0.247595 16.5717 0.378146 16.41 0.738285 16.0596C0.994884 15.8125 1.32801 15.4486 1.48107 15.251C1.63413 15.0533 1.8097 14.8107 1.87272 14.7119C1.94025 14.6131 2.0708 14.3705 2.16984 14.1729C2.27338 13.9752 2.41743 13.6293 2.49396 13.4092C2.57499 13.1891 2.67853 12.8117 2.73255 12.5781C2.81359 12.1918 2.82709 11.9357 2.8586 9.9502C2.89011 7.92871 2.89912 7.71309 2.98915 7.2998C3.04317 7.05273 3.14221 6.69785 3.20073 6.51367C3.26376 6.32949 3.40781 5.98359 3.51586 5.75C3.6284 5.51641 3.85349 5.12109 4.02005 4.87402C4.20012 4.6 4.50624 4.24063 4.79435 3.94863C5.05545 3.68809 5.41109 3.36914 5.58215 3.24336C5.75772 3.11758 6.05033 2.92441 6.2349 2.82109C6.41948 2.71328 6.75711 2.55156 6.97769 2.45723C7.20278 2.3584 7.60793 2.22363 7.87804 2.15625C8.15264 2.08437 8.42275 2.02148 8.59832 1.99902L8.62082 1.3207C8.64333 0.67832 8.64783 0.637891 8.76938 0.458203C8.83691 0.354883 8.98546 0.211133 9.10251 0.134766C9.27808 0.0269531 9.36811 0 9.57519 0ZM16.7375 0.00449219C17.2912 0 17.4892 0.0179687 17.9529 0.116797C18.2545 0.179688 18.6732 0.296484 18.8848 0.368359C19.0964 0.444727 19.398 0.570508 19.56 0.651367C19.7221 0.732227 20.0462 0.925391 20.2803 1.08262C20.5369 1.25332 20.8971 1.5543 21.1852 1.8373C21.4688 2.1248 21.7704 2.48418 21.9415 2.74023C22.099 2.97383 22.2926 3.29727 22.3736 3.45898C22.4547 3.6207 22.5807 3.92168 22.6572 4.13281C22.7293 4.34395 22.8373 4.72578 22.8958 4.98633C22.9859 5.38613 23.0039 5.5748 22.9994 6.24414C22.9994 6.86406 22.9769 7.12012 22.9048 7.45703C22.8508 7.69063 22.7563 8.04551 22.6887 8.24316C22.6212 8.44082 22.4547 8.81367 22.3196 9.07422C22.1846 9.33477 21.9595 9.70312 21.8199 9.90078C21.6804 10.0939 21.3607 10.4488 21.1131 10.6869C20.8655 10.9295 20.4694 11.2529 20.2353 11.4057C20.0012 11.5629 19.6456 11.765 19.4475 11.8594C19.2494 11.9492 18.9253 12.0795 18.7272 12.1424C18.5291 12.2098 18.214 12.2951 18.0295 12.3355C17.8449 12.376 17.3902 12.4209 17.0166 12.4299C16.6024 12.4479 16.1927 12.4344 15.9587 12.4029C15.7471 12.3715 15.3824 12.2951 15.1483 12.2322C14.9143 12.1693 14.5406 12.0391 14.3155 11.9447C14.0949 11.8459 13.7528 11.6752 13.5547 11.5539C13.3612 11.4371 13.0145 11.1855 12.7804 10.9969C12.5463 10.8037 12.1997 10.4578 12.0106 10.2242C11.8171 9.99063 11.565 9.64473 11.4479 9.45156C11.3264 9.25391 11.1553 8.9125 11.0563 8.69238C10.9617 8.47227 10.8312 8.09492 10.7682 7.86133C10.7051 7.62773 10.6286 7.26387 10.5971 7.05273C10.5656 6.81914 10.5521 6.41035 10.5701 5.99707C10.5791 5.62871 10.6241 5.17051 10.6646 4.98633C10.7051 4.80215 10.7907 4.4877 10.8582 4.29004C10.9212 4.09238 11.0428 3.77793 11.1283 3.59375C11.2138 3.40957 11.4119 3.06367 11.565 2.83008C11.718 2.59648 11.9656 2.27305 12.1142 2.11582C12.2582 1.9541 12.4788 1.73398 12.5959 1.62168C12.7174 1.50937 12.9695 1.30273 13.1586 1.16797C13.3521 1.0332 13.7078 0.817578 13.9554 0.687305C14.203 0.561523 14.5676 0.404297 14.7657 0.336914C14.9638 0.269531 15.3374 0.170703 15.5985 0.112305C15.9632 0.0359375 16.2243 0.00898437 16.7375 0.00449219ZM15.3554 3.99805C15.3104 4.03398 15.2339 4.14629 15.1844 4.24512C15.1168 4.37988 15.0988 4.47871 15.1168 4.62695C15.1303 4.73926 15.1799 4.87852 15.2249 4.93691C15.2699 4.99531 15.3644 5.08516 15.432 5.13906C15.531 5.21094 15.648 5.23789 15.9271 5.25586L16.2963 5.27832C16.3413 8.58906 16.3458 8.66992 16.4358 8.79121C16.4854 8.85859 16.6159 8.96191 16.7285 9.02031C16.8905 9.10566 16.9625 9.11914 17.1291 9.09219C17.2732 9.06973 17.3812 9.01133 17.5027 8.89902C17.5973 8.80918 17.6918 8.66543 17.7188 8.58008C17.7413 8.49473 17.7593 7.54238 17.7593 6.46875C17.7593 5.27383 17.7413 4.45176 17.7143 4.35742C17.6873 4.27207 17.6018 4.13281 17.5208 4.05195C17.4442 3.97109 17.3047 3.88574 17.2191 3.86328C17.1336 3.83633 16.769 3.81836 16.4088 3.81836C16.0217 3.82285 15.6931 3.84531 15.5985 3.87676C15.5085 3.9082 15.4004 3.96211 15.3554 3.99805ZM13.1226 20.125L13.055 20.3586C13.0145 20.4889 12.893 20.7764 12.7849 21.001C12.6769 21.2211 12.4878 21.5266 12.3663 21.6748C12.2492 21.823 12.0196 22.0521 11.8576 22.1824C11.7 22.3127 11.3894 22.5104 11.1643 22.6182C10.9437 22.726 10.6016 22.8563 10.4125 22.9057C10.1604 22.973 9.92633 23 9.5887 23C9.21955 23 9.02598 22.973 8.70186 22.8832C8.47227 22.8203 8.10312 22.6721 7.88704 22.5598C7.64845 22.434 7.36034 22.2318 7.17127 22.0566C6.9957 21.8949 6.76611 21.6434 6.66257 21.4951C6.55453 21.3469 6.41948 21.1223 6.35645 21.001C6.29793 20.8752 6.20339 20.6371 6.14937 20.4619C6.09535 20.2867 6.05484 20.143 6.05484 20.134C6.05484 20.1295 7.64395 20.125 13.1226 20.125Z" fill="#FF820F"/>
</svg>
