<svg width="14" height="14" viewBox="0 0 14 14" fill="none" xmlns="http://www.w3.org/2000/svg">
<path d="M11.7212 0.254844C11.795 0.202779 11.9564 0.123312 12.0768 0.0794676C12.2573 0.0137013 12.3394 0 12.5418 0C12.7086 0 12.8345 0.0137013 12.9384 0.0493247C13.0205 0.0767273 13.1572 0.134273 13.2393 0.175377C13.3214 0.216481 13.4718 0.334312 13.5703 0.432961C13.6797 0.542572 13.7864 0.682325 13.8384 0.783715C13.8849 0.879624 13.9423 1.03856 13.9669 1.13995C13.997 1.26874 14.0052 1.39479 13.997 1.54551C13.9888 1.67156 13.9532 1.83872 13.9177 1.94285C13.8821 2.0415 13.8083 2.18947 13.7536 2.27168C13.6961 2.35389 13.4554 2.61969 12.7743 3.29928L10.7091 1.23038L11.1467 0.791936C11.3874 0.548052 11.6446 0.30965 11.7212 0.254844Z" fill="#474747"/>
<path d="M1.03945 2.49364C1.1516 2.44157 1.33214 2.38403 1.43608 2.36485C1.58106 2.34018 2.21567 2.33196 6.57862 2.34018L6.70992 2.41691C6.79745 2.46624 6.8631 2.532 6.91234 2.62243C6.95063 2.69368 6.99166 2.79507 6.99713 2.84713C7.00534 2.8992 6.9944 3.00607 6.97252 3.08005C6.9479 3.17322 6.90139 3.25269 6.8248 3.32668C6.76463 3.38696 6.66615 3.45273 6.60597 3.47191C6.52391 3.49657 5.89204 3.5048 4.07026 3.5048C1.93666 3.5048 1.62756 3.51028 1.54003 3.54864C1.48258 3.57056 1.40052 3.62263 1.35949 3.66373C1.31572 3.70483 1.25828 3.7843 1.22819 3.84185C1.17895 3.9405 1.17622 4.05833 1.1899 12.4819L1.25828 12.5833C1.29658 12.6408 1.3759 12.7203 1.54003 12.8354L5.76894 12.8436C8.64931 12.8491 10.0307 12.8436 10.1018 12.8217C10.1565 12.808 10.2468 12.7532 10.3015 12.7066C10.3562 12.6573 10.4218 12.5778 10.4465 12.534C10.4848 12.46 10.493 12.1887 10.5176 7.40693L10.5942 7.29184C10.6352 7.22881 10.7145 7.1466 10.772 7.10824C10.8404 7.06166 10.9252 7.03425 11.0373 7.02329C11.1823 7.00959 11.2178 7.01507 11.3519 7.08632C11.4613 7.14386 11.5242 7.20141 11.6664 7.43159V9.98277C11.6664 12.3832 11.6637 12.5449 11.6145 12.7121C11.5871 12.8107 11.5242 12.9697 11.475 13.0683C11.423 13.167 11.33 13.3095 11.2643 13.3862C11.1987 13.4656 11.092 13.5753 11.0236 13.6301C10.9552 13.6876 10.8513 13.7616 10.7911 13.7972C10.7309 13.8301 10.5969 13.8904 10.2988 14H1.34034L1.11604 13.9041C0.990212 13.852 0.806941 13.7452 0.705731 13.6712C0.601786 13.5944 0.465017 13.4629 0.396632 13.378C0.328247 13.2903 0.229773 13.1341 0.175065 13.0272C0.123093 12.9203 0.062914 12.7504 0.0410309 12.6436C0.00547079 12.4792 0 11.8325 0 8.18516C0 4.38168 0.00547079 3.89391 0.0437663 3.7158C0.0683848 3.60893 0.128563 3.43081 0.180536 3.32668C0.232508 3.22255 0.325512 3.07183 0.388426 2.99237C0.454075 2.91564 0.579903 2.79233 0.670171 2.71834C0.760439 2.64709 0.927298 2.5457 1.03945 2.49364Z" fill="#474747"/>
<path d="M5.39419 6.62869C5.41608 6.55197 5.87562 6.07516 7.74937 4.19808C9.03227 2.9129 10.0854 1.86064 10.0936 1.86064C10.1018 1.86064 10.5696 2.32374 12.1588 3.91583L9.86109 6.2204C8.59734 7.48914 7.52506 8.54688 7.4813 8.57428C7.42933 8.60716 7.0026 8.70581 6.33243 8.83735C5.63764 8.9771 5.23828 9.04287 5.18904 9.0319C5.14801 9.02094 5.09057 8.98806 5.06048 8.95792C5.03039 8.92777 4.99756 8.87023 4.98662 8.82913C4.97568 8.7798 5.03859 8.39616 5.16989 7.7385C5.27931 7.17949 5.38052 6.68076 5.39419 6.62869Z" fill="#474747"/>
</svg>
