<svg width="22" height="24" viewBox="0 0 22 24" fill="none" xmlns="http://www.w3.org/2000/svg">
<path fill-rule="evenodd" clip-rule="evenodd" d="M9.64384 0.957373L12.3131 0.952881L12.5843 1.08765C12.7307 1.15952 12.9245 1.29878 13.0106 1.39312C13.0967 1.48296 13.2129 1.66265 13.2689 1.78394C13.3421 1.95015 13.3937 2.25562 13.4798 2.97437C13.5444 3.50444 13.6176 3.96265 13.6434 3.9896C13.6693 4.01655 13.8372 4.09741 14.0137 4.16479C14.1902 4.23218 14.4528 4.34897 14.5949 4.42534C14.8145 4.53765 14.8661 4.54663 14.9393 4.50171C14.9867 4.47026 15.3182 4.20522 15.6712 3.91772C16.0286 3.63022 16.4031 3.34722 16.5108 3.28882C16.6313 3.22593 16.8121 3.17651 16.9843 3.16304C17.1738 3.14956 17.346 3.16753 17.5225 3.22144C17.7722 3.29331 17.811 3.32476 18.7796 4.3355C19.7483 5.34624 19.7785 5.38667 19.8474 5.64722C19.899 5.8314 19.9162 6.01108 19.9033 6.20874C19.8904 6.38843 19.8431 6.5771 19.7828 6.70288C19.7268 6.81519 19.4513 7.21948 19.1671 7.60132C18.883 7.98315 18.6333 8.32456 18.6117 8.35601C18.5902 8.38745 18.6505 8.58511 18.7667 8.86811C18.8701 9.12417 18.9777 9.40269 19.0035 9.48804C19.025 9.57339 19.0724 9.66772 19.1025 9.69468C19.1327 9.72163 19.5761 9.798 20.0841 9.86538C20.773 9.95522 21.0658 10.0091 21.225 10.0855C21.3456 10.1439 21.5178 10.2697 21.6082 10.3685C21.7029 10.4628 21.8278 10.656 22 11.0378V13.8679L21.8881 14.115C21.8278 14.2498 21.7029 14.4429 21.6082 14.5373C21.5178 14.6316 21.3456 14.7574 21.225 14.8158C21.0614 14.8966 20.7859 14.9505 20.0841 15.0404C19.5761 15.1078 19.1327 15.1841 19.1025 15.2111C19.0724 15.238 19.025 15.3324 19.0035 15.4177C18.9777 15.5031 18.8701 15.7816 18.7667 16.0332C18.6505 16.3207 18.5902 16.5183 18.6117 16.5498C18.6333 16.5812 18.883 16.9226 19.1671 17.3044C19.4513 17.6863 19.7311 18.0906 19.7871 18.2029C19.8732 18.3736 19.8904 18.4679 19.8904 18.8093C19.8904 19.1597 19.8732 19.2451 19.7742 19.4382C19.6967 19.591 19.3566 19.9818 18.7194 20.6376C17.8153 21.572 17.7722 21.6125 17.5225 21.6843C17.346 21.7382 17.1738 21.7562 16.9843 21.7427C16.8121 21.7292 16.6313 21.6798 16.5108 21.6169C16.4031 21.5585 16.0286 21.2755 15.6712 20.988C15.3182 20.7005 14.9867 20.4355 14.9393 20.4041C14.8661 20.3591 14.8145 20.3681 14.5949 20.4804C14.4528 20.5568 14.1902 20.6736 14.0137 20.741C13.8372 20.8083 13.6693 20.8892 13.6434 20.9162C13.6176 20.9431 13.5444 21.4013 13.4798 21.9314C13.3937 22.6501 13.3421 22.9556 13.2689 23.1218C13.2129 23.2431 13.0967 23.4228 13.0106 23.5126C12.9245 23.607 12.7307 23.7462 12.3131 23.9529H9.68689L9.41996 23.8181C9.26928 23.7462 9.07554 23.607 8.98943 23.5126C8.90333 23.4228 8.78708 23.2431 8.73112 23.1218C8.66223 22.9556 8.60626 22.6546 8.52446 21.9763C8.46419 21.4687 8.40391 21.015 8.3953 20.9656C8.38239 20.9027 8.29628 20.8443 8.08532 20.7679C7.92603 20.714 7.64188 20.5927 7.46106 20.4984C7.21135 20.3771 7.11663 20.3501 7.07358 20.3861C7.04344 20.413 6.71624 20.6781 6.35029 20.9746C5.98434 21.271 5.59687 21.563 5.48924 21.6214C5.32564 21.7113 5.23523 21.7292 4.90802 21.7292C4.57221 21.7292 4.49041 21.7113 4.30528 21.608C4.1589 21.5271 3.78434 21.1722 3.15577 20.5074C2.26027 19.564 2.22153 19.5191 2.15264 19.2585C2.10098 19.0744 2.08376 18.8947 2.09667 18.697C2.10959 18.5173 2.15695 18.3287 2.21722 18.2029C2.27319 18.0906 2.54873 17.6863 2.83288 17.3044C3.11703 16.9226 3.36673 16.5812 3.38826 16.5498C3.40978 16.5183 3.34951 16.3207 3.23327 16.0332C3.12994 15.7816 3.02231 15.5031 2.99648 15.4177C2.97495 15.3324 2.92759 15.238 2.89746 15.2111C2.86732 15.1841 2.42387 15.1078 1.91585 15.0404C1.22701 14.9505 0.934247 14.8966 0.774951 14.8203C0.658708 14.7619 0.482192 14.6361 0.391781 14.5373C0.297065 14.4429 0.172211 14.2498 0 13.8679V10.9929L0.120548 10.7548C0.185127 10.6291 0.30998 10.4449 0.400391 10.355C0.486497 10.2652 0.658708 10.1439 0.774951 10.09C0.934247 10.0136 1.23131 9.95522 1.91585 9.86538C2.42387 9.798 2.86732 9.72163 2.89746 9.69468C2.92759 9.66772 2.97495 9.57339 2.99648 9.48804C3.02231 9.40269 3.12994 9.12417 3.23327 8.86811C3.34951 8.58511 3.40978 8.38745 3.38826 8.35151C3.36673 8.32456 3.11703 7.98315 2.83288 7.60132C2.54873 7.21948 2.27319 6.81519 2.21722 6.70288C2.15695 6.5771 2.10959 6.38843 2.09667 6.20874C2.08376 6.01108 2.10098 5.8314 2.15264 5.64722C2.22153 5.38667 2.25166 5.34624 3.22035 4.3355C4.18904 3.32476 4.22779 3.29331 4.4775 3.22144C4.65401 3.16753 4.82622 3.14956 5.01566 3.16304C5.18787 3.17651 5.37299 3.22593 5.48924 3.28882C5.59687 3.34272 5.93268 3.59429 6.24266 3.84136C6.55264 4.09292 6.87554 4.35796 7.12524 4.56909L7.56438 4.35796C7.80978 4.24565 8.07671 4.12886 8.15851 4.1019C8.24031 4.07944 8.33072 4.03003 8.35656 3.99858C8.38239 3.96714 8.45558 3.50444 8.52016 2.97437C8.60626 2.25562 8.65793 1.95015 8.73112 1.78394C8.78708 1.65815 8.90333 1.48296 8.98943 1.38862C9.07554 1.29878 9.26067 1.16401 9.39843 1.08765L9.64384 0.957373ZM9.83757 7.82593C9.63523 7.87983 9.29511 8.01011 9.08415 8.11343C8.86888 8.22124 8.56751 8.39194 8.41683 8.49976C8.26184 8.60757 7.982 8.85015 7.79687 9.03882C7.61174 9.223 7.36204 9.52847 7.24149 9.71714C7.12094 9.90132 6.93581 10.2337 6.83679 10.4584C6.73777 10.6785 6.61292 11.0244 6.56556 11.222C6.51389 11.4197 6.45362 11.7701 6.42779 12.0082C6.39765 12.3091 6.39765 12.5652 6.42779 12.8841C6.45362 13.1312 6.51389 13.4951 6.56556 13.6927C6.61292 13.8904 6.73777 14.2318 6.83679 14.4564C6.93581 14.6765 7.12094 15.0089 7.24149 15.1976C7.36204 15.3818 7.61174 15.6873 7.79687 15.8714C7.982 16.0601 8.26184 16.3027 8.41683 16.4105C8.56751 16.5183 8.86888 16.689 9.08415 16.7968C9.29511 16.9001 9.62231 17.0304 9.81605 17.0798C10.0055 17.1337 10.3413 17.1966 10.5695 17.2236C10.8579 17.255 11.1033 17.255 11.409 17.2236C11.6458 17.1966 11.9945 17.1337 12.184 17.0798C12.3691 17.0304 12.7006 16.9046 12.9159 16.7968C13.1268 16.6935 13.4282 16.5183 13.5832 16.4105C13.7339 16.3027 14.0137 16.0601 14.1988 15.8714C14.384 15.6873 14.6337 15.3818 14.7542 15.1976C14.8748 15.0089 15.0599 14.6765 15.1589 14.4564C15.2579 14.2318 15.3828 13.8904 15.4301 13.6927C15.4818 13.4951 15.5421 13.1312 15.5679 12.8841C15.598 12.5652 15.598 12.3091 15.5679 12.0082C15.5421 11.7701 15.4818 11.4197 15.4301 11.222C15.3828 11.0244 15.2579 10.6785 15.1589 10.4584C15.0599 10.2337 14.8748 9.90132 14.7542 9.71714C14.6337 9.52847 14.384 9.223 14.1988 9.03882C14.0137 8.85015 13.7339 8.60757 13.5832 8.49976C13.4282 8.39194 13.1268 8.21675 12.9159 8.11343C12.7006 8.00561 12.3691 7.87983 12.184 7.83042C11.9945 7.77651 11.6716 7.71812 11.4736 7.69116C11.2712 7.6687 11.0258 7.65073 10.9354 7.65522C10.8407 7.65972 10.6341 7.67769 10.4834 7.69565C10.3284 7.71362 10.0356 7.77202 9.83757 7.82593Z" fill="#A7A5A5"/>
</svg>
